<svg xmlns="http://www.w3.org/2000/svg" version="1.1" width="600px" height="600px" viewBox="0 0 200 200" style="overflow:hidden!important;"><g id="svga-group-wrapper"><g id="svga-group-backs-single"></g><g id="svga-group-humanwrap-move" transform="matrix(1,0,0,1,0,0)"><g id="svga-group-humanwrap"><g id="svga-group-hair-back-move" transform="matrix(1,0,0,1,0,0)"><g id="svga-group-hair-back"></g></g><g id="svga-group-humanbody-back"><path id="SvgjsPath7353" d="M166.5 181.1c-10.9-6.6-27.6-8.4-35-12.1-4.9-2.5-9.1-4.7-8.9-17.8s1.9-42.4 1.9-42.4H75.4s1.6 29.4 1.9 42.4-4.2 15.6-8.9 17.8c-7.4 3.5-24.1 5.4-35 12.1-10.8 6.6-10 18.9-10 18.9v19.7h153.3V200c-.1 0 .7-12.3-10.2-18.9z" fill="#f0c7b1" stroke-width="none" opacity="1"></path></g><g id="svga-group-chinshadow-single"><path id="SvgjsPath7349" d="M124.5 108.9H75.4c.1 1.8 1.6 29.7 1.9 42.3 0 1.8 0 3.4-.1 4.9 6.7 7.3 14.6 11.9 22.8 11.9 8.2 0 16.1-4.6 22.8-11.9-.1-1.4-.2-3.1-.2-4.9.2-12.7 1.8-40.5 1.9-42.3z" fill="#d19271" stroke-width="none" opacity="0.65"></path></g><g id="svga-group-humanbody-front"><path id="SvgjsPath7354" d="M78.7 156.8c.5 4.8 1.7 9.4 3.1 13.9.8 2.3 1.6 4.6 2.6 6.9.8 2 1.7 4.2 3.1 5.9.3.4 1 0 .9-.5-.5-2.2-1.6-4.3-2.4-6.4-.9-2.2-1.7-4.4-2.5-6.6-1.5-4.4-2.8-8.9-4.1-13.3-.2-.4-.8-.3-.7.1zm41.3-1c-1.3 8.2-3.9 16.1-5.4 24.2-.1.4.4.5.6.2 3.1-7.7 4.1-16.1 5.1-24.3-.1-.2-.3-.2-.3-.1zm-25.8 11.9c-.9 3.6 1.9 8.6 6.2 7.6.5-.1.4-.8 0-1-1.4-.5-2.9-.9-3.9-2.1-1.1-1.2-1.5-2.9-1.4-4.5 0-.4-.8-.5-.9 0z" fill="#d19271" stroke-width="none" opacity="1"></path><path id="SvgjsPath7355" d="M177.3 219.7c-.1-6.6-.3-13.1-.3-19.7l-.3-.3c.1 0 .1 0 .2.1s.1.2.1.1v-1.4c0-.5-.1-.9-.1-1.4-.1-.9-.3-1.9-.5-2.8-.5-1.8-1.1-3.6-2-5.3-1.7-3.4-4.4-6.2-7.7-8.1-3.6-2.2-7.6-3.8-11.6-5.1-4-1.3-8.1-2.4-12.1-3.5-4-1.2-8.1-2.2-11.8-4.2-1.9-1-3.6-2.1-4.8-3.6-1.2-1.6-1.9-3.5-2.3-5.5-.8-4-.4-8.2-.3-12.4l.7-12.6 1.5-25.2.1-1.4h-1.4c-8.2 0-16.4 0-24.6.1l-24.6.3h-.9l.1.9c.8 11.9 1.6 23.8 2.1 35.7.1 3 .3 6 .2 8.9-.1 2.9-.4 5.9-1.6 8.6-.6 1.3-1.4 2.5-2.4 3.5s-2.3 1.8-3.6 2.4c-2.6 1.3-5.4 2.2-8.3 3-5.8 1.5-11.6 2.8-17.3 4.7-2.8.9-5.7 2-8.4 3.4-1.3.7-2.7 1.4-4 2.4-1.3.9-2.4 1.9-3.5 3.1-2.1 2.3-3.6 5.2-4.5 8.1-.5 1.5-.8 3-1 4.6-.1.8-.1 1.6-.1 2.4v2.3l-.2 17.9v1.3h1.4l38.3.2c12.8.1 25.5.1 38.3 0 12.8-.1 25.6-.1 38.3-.3 12.8-.2 25.6-.5 38.3-.7h.6v-.5zm-77.2-1.6H61.8l-37 .2-.1-16.6v-2.2c0-.7 0-1.4.1-2.1.1-1.4.4-2.8.8-4.2.8-2.7 2.1-5.3 3.9-7.5.9-1.1 2-2.1 3.1-2.9 1.1-.9 2.4-1.6 3.7-2.3 2.6-1.4 5.3-2.5 8.1-3.5 5.6-2 11.4-3.4 17.1-5.1 2.9-.8 5.8-1.7 8.5-3.1 1.3-.7 2.7-1.5 3.8-2.6 1.1-1.1 2-2.4 2.6-3.9 1.2-2.9 1.5-5.9 1.6-8.9 0-3-.1-6-.2-9l-1.3-34.8 23.5.4c7.7.1 15.4.1 23.1.1-.4 7.9-.8 15.9-1.1 23.8-.2 4.2-.2 8.4-.3 12.6 0 4.2-.2 8.5.8 12.8.5 2.1 1.3 4.2 2.8 6 1.4 1.7 3.4 2.9 5.3 3.8 3.9 1.9 8 2.8 12.1 3.8s8.2 2 12.2 3.3c4 1.3 7.9 2.8 11.5 5 3.2 1.9 5.8 4.7 7.5 8 .9 1.6 1.5 3.4 1.9 5.2.2.9.4 1.8.4 2.7.1.5.1.9.1 1.4V200l-.3 19c-12.6-.2-25.1-.5-37.7-.7-12.7-.1-25.5-.1-38.2-.2z" fill="#c27b55" stroke-width="none" opacity="1"></path></g><g id="svga-group-clothes-single"><path id="SvgjsPath7956" d="M100.8 184.4c-1.1-3-8.2-7.8-13.2-10.6s-7-4.9-10-8.8c-1.8-3.6-1-8.9-1-8.9-.1-4.7-.6-9.5-.9-14.7-8.2-1.1-13.1 3.7-14 4.6-6.5 6.3-3.1 8.5-5.7 11.5-9.2 2.1-7.1 14.2-10.7 15-8.7 1.9-21.2 7-24.2 21 0 0-1.6 9.2-1.6 26.7h160.7c0-17.5-1.6-26.7-1.6-26.7-3.2-15.2-17.6-19-26.1-21.4-1.4-.6.2-5.2-2.5-10.5-1.4-2.7-3.9-6.5-9.3-7.8 0 0-1.2-6.6-5.4-9.9-4.2-3.3-11.2-2.5-11.2-2.5s-.3 14.1-.3 16.1c0 3.2-.2 4.9-1.6 6.6s-4.4 3.9-6.9 7.5-10.1 7.5-11.7 9c-1.4 1.4-2.8 3.8-2.8 3.8z" fill="#3b6e77" stroke-width="none" opacity="1" stroke="none"></path><path id="SvgjsPath7957" d="M105.6 187.4c-.6.6-1.7 3.4-1.8 5.7s1.8 11.5 2.1 13.4-1 7.4-1 8.5 2.8 2.8 3.1 1.7c.3-1.1 1.2-8.4.2-10.9s-2.2-10.1-2.2-11.6 1.1-5.6 1.6-6.5c0 0 .2-.8-.6-.9-.8-.1-1.4.6-1.4.6z" fill="#d6d6d6" stroke-width="none" opacity="1"></path><path id="SvgjsPath7958" d="m95.6 186.8.1-.2s1.8-1.3 1.9.9c0 0-1.2 2.8-1.2 4.8s2.2 11.9 2.5 14.1-2.7 10.4-3.1 10.5-2.1-.9-2.6-1.3c-.4-.4 2.5-6.9 2.8-9.9.3-2.9-.4-8.7-1.2-12.2-.8-3.5.4-5.9.8-6.6v-.1z" fill="#d6d6d6" stroke-width="none" opacity="1"></path><path id="SvgjsPath7959" d="M181.4 204.3c-.2-2.6-.4-5.2-.7-7.9l-.2-2-.1-1v-.3c0-.1 0-.2-.1-.3l-.1-.5c-.3-1.4-.7-2.7-1.2-4-1.1-2.6-2.6-5-4.4-7.1-1.9-2.1-4.1-3.8-6.5-5.2-4.6-2.7-9.6-4.2-14.5-5.5v-.1c-.1-.4-.1-.9-.1-1.4-.1-1-.1-2-.3-3.1-.3-2.1-1.1-4.2-2.1-6-1-1.8-2.4-3.6-4.1-4.9-1.5-1.2-3.2-2-5-2.6-.4-1.4-.8-2.8-1.4-4.1-.7-1.6-1.6-3.1-2.9-4.4-1.3-1.4-3.4-2.5-5-3-5.1-1.2-8.6-.4-8.6-.4s-1.2 9.6-2.9 22.5c0 0-3.9 4.9-5.3 6.8-.4.4-.7 1-1.1 1.4-.2.2-.3.4-.5.6l-.6.6c-.8.8-1.7 1.5-2.6 2.2-1.8 1.4-3.8 2.7-5.7 4-.5.3-1 .7-1.4 1.1-.5.4-.8.9-1.2 1.3-.4.5-.7.9-1 1.4l-.5.8-.2.4-.1.1-.2-.3-.3-.6c-.2-.4-.5-.7-.8-1l-1.8-1.8c-1.3-1.1-2.6-2.2-4-3.2s-2.8-1.9-4.2-2.8c-1.4-.9-2.9-1.7-4.2-2.7-2.7-2-4.5-4.6-6.6-7.1-1.1-1.3-1.7-3.5-1.9-4.9-.1-1 .6-10.8-.2-17.9 0-.4-.7-.9-5.6-1.1-5 .1-8.8 3.3-10.4 4.9-1.5 1.6-3.1 3.3-3.9 5.6-.4 1.1-.5 2.4-.7 3.4-.1.9-.3 1.4-.7 1.9-1.7.4-3.3 1.3-4.5 2.5-1.4 1.4-2.3 3-2.9 4.7-.7 1.7-1.1 3.4-1.5 4.9-.2.8-.5 1.5-.8 2.1-.1.3-.3.4-.4.5 0 0-.1 0-.1.1l-.6.1c-3.3.8-6.6 1.9-9.8 3.4-3.1 1.6-6 3.6-8.4 6.2-2.4 2.6-4.2 5.7-5.3 9-.3.8-.5 1.7-.7 2.5l-.1.7c0 .1 0 .2-.1.4v.3l-.2 1.3c-.2 1.7-.3 3.4-.5 5-.5 6.7-.6 13.4-.5 20.1 0 .4.1 1.3.5 1.3 13.4-.2 160.9.2 160.9.2.8 0 1.5-.7 1.5-1.5-.1-5-.2-10.3-.6-15.6zm-27.8-33.4zm-28.8-26.1c1 .6 4.7 2.5 6 5.1.1.8.2 1.8 0 2.6s-.6 1.5-1.1 2.3c-2.1 2.6-6.1 6.3-6.5 6.8 5.1-8.8 1.6-16.8 1.6-16.8zm-50.4 17.7c.9 1.4 4 4.3 5 5.5-.4-.3-3.9-3-4.3-3.2-1.2-.8-1.8-1.7-2.7-2.9-1.8-2.2-2.7-5.1-3.4-8-.3-1.4-.6-2.9.3-3.8 2.2-1.5 5.9-2 6.1-2.1.2 2.7-3.2 5.8-3.1 8.5-.1.3-.1.4-.1.7v.8c.1.5.2 1 .3 1.4.3.7 1.4 2.3 1.9 3.1zM48 171.8c.5-.9.8-1.8 1-2.6.5-1.7.8-3.2 1.4-4.7.5-1.5 1.3-2.8 2.3-3.8s2.3-1.7 3.7-2c.2 0 .3-.1.5-.2.1 1.1.2 2.2.4 3.3.3 1.7.7 3.4 1.4 5 .3.9.8 1.6 1.2 2.4.5.7 1 1.5 1.5 2.2 2.3 2.8 5.1 4.8 8.2 6.4 3.1 1.6 6.3 2.8 9.7 3.4-3.1-1.4-6.1-3-8.9-4.8-1.4-.9-2.8-1.8-4-2.9-1.3-1.1-2.5-2.2-3.4-3.4-.5-.6-1-1.3-1.4-1.9-.4-.7-.8-1.4-1.1-2.1-.7-1.4-1.1-3.1-1.6-4.6-.4-1.4-.7-2.9-.9-4.3.1-.2-.8-5.1 4.4-9.9 1.4-1.5 3-2.8 4.6-3.8 4.2-2.4 6.8-1.4 8.1-1.2.1 2 .2 3.1.3 5.1-.3.1-4.2 1-4.5 1.1-.7.3-1.5.5-2.2 1.1-.7.5-1.1 1.5-1.2 2.3-.1.9 0 1.7.1 2.5.4 3.1 1.3 6.3 3.3 8.9 1 1.3 2.3 2.4 3.6 3.2l3.9 2.4c1.3.8 2.6 1.5 3.9 2.2.8.6 1.5 1.2 2.3 1.7 1.4 1 2.9 1.8 4.4 2.6 1.4.8 2.9 1.7 4.3 2.6s2.8 1.9 4.1 2.9c.7.5 1.3 1.1 1.9 1.7.3.3.6.6.8.9.1.2.2.3.3.5l.2.3c.1.1.2.3.3.4 0 0 .1 0 .2-.1v-.1l.1-.1.1-.2.2-.4.5-.7c.3-.5.7-.9 1.1-1.4.4-.4.8-.9 1.2-1.2.4-.3.9-.7 1.4-1 2-1.2 4-2.4 5.9-3.8 1-.7 1.9-1.4 2.8-2.2.2-.2.4-.4.7-.6.2-.2.4-.4.6-.7.4-.5.7-.9 1.1-1.4 1.5-1.7 3.2-3.3 4.9-4.9l2.6-2.4c.7-.7 3.2-2.8 3.6-3.2 1.5-1.3 2.8-2.7 3.8-4.5 1-1.8.9-4 .2-6.1-1.1-2.4-5.6-5-6.9-5.8l-.1-2.5c.2.1 4.4-.9 8.1 1.4 2.5 1.6 4.6 5.3 5.3 6.7.6 1.4 1.1 2.9 1.4 4.4.1.5.5.9 1 1.1.1 0 .1 0 .2.1-.2 2-.6 4-1.4 5.8-.6 1.5-1.3 2.9-2.3 4-1 1.2-2.2 2.3-3.4 3.3-.6.5-1.2 1-1.8 1.6l-1.9 1.5c-1.3 1-2.6 2-3.9 2.9-2.6 1.9-5.3 3.8-7.9 5.8 3.1-1.3 6-2.8 8.8-4.5 2.8-1.7 5.6-3.6 8.1-5.8.6-.6 1.3-1.1 1.8-1.7l.9-.9.8-1c1.1-1.4 1.8-3 2.3-4.7.6-2 .8-4 .7-6.1 1.4.5 2.6 1.1 3.7 2.1 1.4 1.1 2.4 2.6 3.3 4.2.9 1.6 1.5 3.3 1.7 5.1.1.9.2 1.8.2 2.8 0 .5 0 1 .1 1.6 0 .3.1.6.2 1.1.1.2.2.5.4.7l.1.1-1.4 1.4c-.9.8-1.9 1.6-2.8 2.4-1.9 1.6-3.9 3.1-5.9 4.5-2 1.4-4 2.9-6.1 4-1.1.6-2.1 1.1-3.2 1.5-1.1.4-2.3.8-3.5 1.1-2.4.7-4.8 1.3-7.2 1.8-2.4.6-4.8 1.1-7.2 1.5l-3.6.6c-.6.1-1.2.1-1.7.1-.6 0-1.1-.2-1.6-.4l-.2-.1c.3-1.1.6-2.3 1-3.3.1-.2 0-.5-.1-.7s-.4-.3-.7-.3c-.5 0-.9.3-1.2.6.3-.4.8-.6 1.2-.6.2 0 .5.1.6.3.1.2.2.4.1.7-.5 1.2-.8 2.4-1.2 3.7-.3 1.2-.6 2.6-.4 3.9.2 2.6.6 5.1 1.1 7.7.1.6.3 1.3.4 1.9l.3.9c.1.3.2.6.2.9.2 1.2.2 2.5.2 3.8-.1 1.3-.2 2.6-.3 3.8-.1.6-.2 1.3-.3 1.9 0 .1-.1.3-.1.4-.1 0-.4 0-.6-.1-.5-.2-1-.6-1.3-1-.1-.1-.1-.2-.2-.3v-.3c0-.3.1-.6.1-.9.2-1.3.4-2.5.6-3.8.1-.6.2-1.3.2-1.9 0-.6 0-1.4-.1-2l-.8-3.8c-.5-2.5-1.1-5.1-1.4-7.6-.1-.6-.1-1.3-.1-1.9 0-.5.1-.9.2-1.4 0 0 .1-.4.1-.5.2-.6.3-1.2.6-1.9-.2.6-.4 1.2-.6 1.9 0 .1-.1.3-.1.4-1-.6-2.1-.9-3.3-1.1-1.3-.2-2.5-.3-3.8-.5.2-.8.4-1.5.7-2.2 0-.2-.1-.5-.2-.7s-.2-.4-.5-.6c-.5-.2-1 0-1.4.3.4-.2.9-.4 1.3-.2s.5.8.5 1.2c-.5 1.2-1 2.4-1.2 3.8-.1.6-.2 1.4-.1 2 .1.7.2 1.3.3 2 .4 2.6.9 5.2 1.4 7.8l.3 1.9c.1.6.2 1.3.2 1.9-.1 1.2-.4 2.5-.8 3.7-.4 1.2-.8 2.5-1.2 3.7-.2.6-.5 1.2-.7 1.8-.1.1-.1.2-.2.4-.2-.1-.4-.1-.7-.3-.3-.1-.6-.3-.8-.5-.1-.1-.2-.2-.4-.3l-.1-.1c0-.2.1-.5.2-.8l.3-.9 1.3-3.7c.4-1.3.8-2.5 1-3.9.2-1.4.1-2.7 0-4-.2-2.6-.7-5.2-1.2-7.8-.6-1.8-.6-3.9-.1-5.7h.1s0-.1-.1-.1c.2-.6.4-1.2.7-1.8-.3.5-.6 1.1-.8 1.7-.5-.6-.8-1.4-.6-1.9.2-.6.8-1 1.6-.9.7 0 1.4.4 2 .9.3.3.5.6.6 1 .1.3-.1.7-.5 1 .2 0 .5-.1.7-.3s.3-.5.3-.7c0-.5-.2-1-.5-1.4-.6-.8-1.5-1.4-2.5-1.5-.5 0-1.1.1-1.6.4s-.8.8-.8 1.4c-.1 1.1.6 1.8 1.4 2.2-.1.4-.2.7-.3 1.1l-5.5-.7c-2.6-.4-5.2-.6-7.8-1-2.6-.4-5.2-.8-7.7-1.3-1.3-.2-2.5-.5-3.7-.9-1.2-.3-2.4-.9-3.6-1.4-2.4-1-4.7-2.3-6.9-3.5-2.3-1.3-4.5-2.6-6.7-4-1.1-.7-2.2-1.4-3.2-2.2l-1.5-1.2-.6-.6c-.1-1 .1-1.3.3-1.6zm52 47.5-20.1.2-20.1.1c-13.2.1-26.3 0-39.5-.2.1-6.4.4-12.9 1.1-19.3.2-1.6.4-3.3.6-4.9l.2-1.2v-.3c0-.1 0-.2.1-.3l.1-.6c.2-.8.4-1.5.7-2.3 1.1-3 2.8-5.7 5-8s4.9-4.1 7.8-5.5c2.9-1.4 6-2.5 9.1-3.2l.6-.1c.4-.1.7-.2 1-.5.2-.1.3-.2.4-.4.5.8 1.2 1.4 1.9 2.1 1 .9 2 1.8 3 2.6 2.1 1.6 4.2 3.1 6.5 4.6 2.2 1.4 4.5 2.7 6.9 3.9 1.2.6 2.4 1.1 3.8 1.5 1.3.4 2.6.7 3.9 1 5.2 1 10.4 1.6 15.7 1.9 2.2.1 3.4.2 5.5.2-.1 1.2 0 2.5.2 3.7.5 2.6.8 5.2.9 7.8.1 1.3.1 2.6-.1 3.9-.2 1.2-.6 2.5-1 3.7l-1.3 3.7c-.1.3-.2.6-.3 1-.1.3-.2.6-.2 1.1v.3c0 .1.1.2.1.2l.1.1c.1.1.2.1.2.2.1.1.3.2.4.3.3.2.6.4.9.5.3.2.6.3 1.1.4h.4c.2-.1.2-.1.3-.2.1-.1.2-.2.2-.3.1-.2.2-.3.2-.5.3-.6.5-1.2.7-1.9.4-1.2.8-2.5 1.2-3.8.3-1.3.7-2.6.8-4 0-.8-.2-1.4-.3-2-.1-.6-.2-1.3-.4-1.9-.5-2.6-1.1-5.1-1.6-7.7-.1-.6-.2-1.3-.3-1.9-.1-.6-.1-1.3 0-1.9 0-.2.1-.4.1-.6 2.4.1 4.9-.1 7.2.7-.1.5-.2.9-.2 1.4-.1.6 0 1.3.1 1.9.3 2.6.7 5.1 1.1 7.7l.6 3.8c.2 1.2-.1 2.5-.3 3.7l-.7 3.8c-.1.3-.1.6-.1 1 0 .1 0 .5.1.7.1.2.2.4.3.5.5.6 1.1 1 1.7 1.3.3.1.7.3 1.3.2.3-.1.6-.4.7-.6.1-.2.1-.4.1-.5.1-.7.2-1.3.3-2 .2-1.3.2-2.6.3-3.9 0-1.3 0-2.6-.3-3.9-.1-.3-.2-.7-.3-1l-.3-.9c-.2-.6-.4-1.2-.5-1.9-.6-2.5-1.1-5-1.5-7.6-.2-1-.1-2.1.2-3.1.6.3 1.3.5 1.9.6.3.1.7.1 1 .1h1c1.3 0 2.5-.2 3.8-.3 5-.6 9.9-1.6 14.7-2.9 1.2-.4 2.4-.7 3.6-1.2 1.2-.4 2.4-1 3.5-1.7 2.2-1.3 4.2-2.8 6.1-4.4 1.9-1.6 3.8-3.2 5.6-5 .9-.9 1.8-1.8 2.6-2.8.4-.5.8-1 1.2-1.6.2.1.4.3.6.4.1 0 .1.1.2.1 5 1.4 9.9 2.9 14.2 5.5 4.3 2.5 7.7 6.2 9.6 10.7.4 1.1.8 2.3 1.1 3.5l.1.4v.4l.1.9.2 1.9c.3 2.6.5 5.1.7 7.7.3 4.7.5 9.4.5 14.1l-38.6.2c-13.2.2-26.6.4-40 .6zm4.7-30.4c-.3-.4-.4-.8-.4-1.1 0-.4.1-.7.3-1 .4-.5 1.2-.7 1.9-.6.7.1 1.5.5 1.8 1.1.2.3.2.6.1 1s-.4.7-.7 1.1c.4-.1.8-.4 1.1-.9.3-.4.3-1.1.1-1.6-.4-1-1.4-1.6-2.4-1.8-.5-.1-1-.1-1.5.1s-1 .5-1.2 1c-.2.4-.3 1-.2 1.5.3.6.7 1 1.1 1.2zM41 209.2c-.7-2.7-1.6-5.3-2.8-7.8-1.2-2.5-2.7-4.9-4.5-7-1.8-2.1-3.8-4.1-6.2-5.4 1.1.8 2.1 1.8 3 2.8 1 1 1.8 2 2.6 3.1 1.6 2.2 3 4.5 4.2 7 .6 1.2 1.2 2.4 1.6 3.7.5 1.2.9 2.6 1.4 3.8.4 1.3.7 2.6 1.1 3.9.3 1.3.6 2.7.9 4-.1-1.4-.3-2.7-.5-4.1-.2-1.3-.4-2.6-.8-4zm125.6-13.9c-1.8 1.9-3.3 4.1-4.5 6.4-1.2 2.3-2.2 4.8-3 7.3-.4 1.2-.6 2.5-1 3.8l-.6 3.9c.4-1.2.7-2.5 1.1-3.7.4-1.2.8-2.5 1.2-3.7.2-.6.5-1.2.7-1.8s.5-1.2.8-1.8c.5-1.2 1.1-2.3 1.7-3.5 1.2-2.2 2.6-4.4 4.2-6.4.8-1 1.7-1.9 2.6-2.9.9-.9 1.9-1.8 3-2.4-2.4 1.1-4.4 2.9-6.2 4.8z" fill="#1a4f58" stroke-width="none" opacity="1" stroke="none"></path></g><g id="svga-group-head" transform="matrix(1,0,0,1,0,0)"><g id="svga-group-ears-left-move" transform="matrix(1,0,0,1,0,0)"><g id="svga-group-ears-left"><path id="SvgjsPath7253" d="M62 92.9c-.2-.3-3.3-4.3-5.9-6.7-2.6-2.4-3.4-2.4-4.6-.9-1.3 1.5-2.9 9.1-2.5 12.4.4 3.4 3.6 8.7 5.2 11.7 1.7 3 3.3 6.7 5.1 6.3 1.9-.4 4.4-4.6 5.7-7.7 1.3-3.1.5-10.8-3-15.1z" fill="#f0c7b1" stroke-width="none" opacity="1"></path><path id="SvgjsPath7254" d="M65.8 102c.1.9.2 1.7.2 2.6s0 1.7-.2 2.6c-.1.4-.2.9-.3 1.3-.1.4-.3.7-.4 1.1-.3.7-.6 1.4-1 2.1-.7 1.3-1.5 2.6-2.6 3.6-.5.5-1.1 1-1.8 1.3-.4.1-.9.1-1.3 0-.4-.2-.8-.5-1.1-.8-1.2-1.3-1.9-2.8-2.7-4.3-.7-1.5-1.5-2.9-2.2-4.3-.7-1.5-1.5-2.9-2.1-4.4-.3-.8-.7-1.5-.9-2.3-.3-.8-.5-1.6-.6-2.5-.2-1.7 0-3.4.1-5 .2-1.6.5-3.2.8-4.8.2-.8.4-1.6.8-2.3l.3-.6c.1-.2.3-.4.4-.5.2-.3.5-.6.9-.8.3-.2.8-.3 1.2-.3.4.1.8.3 1.1.5.7.4 1.2 1 1.8 1.5 2.2 2.2 4 4.8 5.9 7.2 1.9 2.4 3.2 5.7 3.7 9.1zM55.7 86.4c-1.1-.9-2.4-1.9-3.1-1.2-.2.1-.4.4-.6.6l-.3.3c-.1.1-.1.3-.2.4-.3.6-.5 1.3-.8 2-.5 1.4-.9 2.9-1.1 4.5-.3 1.5-.5 3.1-.4 4.7.1.8.3 1.6.6 2.3.3.8.6 1.5.9 2.2.7 1.5 1.5 2.8 2.3 4.2.8 1.4 1.7 2.7 2.5 4.1.4.7.8 1.4 1.2 2s.8 1.3 1.3 1.7c.5.4.9.6 1.3.4.5-.2.9-.6 1.4-1.1.9-1 1.6-2.1 2.3-3.4.4-.6.7-1.3 1-1.9.2-.3.3-.7.4-1l.2-.5c0-.2.1-.3.1-.5.3-1.4.4-3 .3-4.6s-.4-3.2-.9-4.8c-.5-1.6-1.2-3-2.2-4.2-1.9-2.1-4-4.3-6.2-6.2z" fill="#e1ac8f" stroke-width="none" opacity="1"></path><path id="SvgjsPath7255" d="M51.2 99.4c-.3-2.3-.5-7.8.8-9.6 2.2-2.9 6 6.4 6.9 9.3 0 .1.1.2.1.3.2.3-.1.7-.4.6-.4-.2-.9-.6-1.3-.8-1.1-.5-1.6.5-1.3 1.8.4 1.8 1.4 2.9 2.2 4.3.1.2 0 .4-.2.3-1.6-.9-3.5-4.5-3.1-6.6.3-2 1.9-1.8 3.1-.8-.7-1.7-1.5-3.3-2.5-4.8-.6-.9-1.2-2-2.2-2.2-1.2-.2-1 .3-1.2 1.8-.8 4.8-.3 10.4 2.5 14.5.1.1 0 .2-.1.1-1.8-2.3-3-4.9-3.3-8.2z" fill="#d19271" stroke-width="none" opacity="1"></path></g></g><g id="svga-group-ears-right-move" transform="matrix(1,0,0,1,0,0)"><g id="svga-group-ears-right"><path id="SvgjsPath7256" d="M138 92.9c.2-.3 3.3-4.3 5.9-6.7 2.6-2.4 3.4-2.4 4.6-.9 1.3 1.5 2.9 9.1 2.5 12.4s-3.6 8.7-5.2 11.7c-1.7 3-3.3 6.7-5.1 6.3-1.9-.4-4.4-4.6-5.7-7.7s-.5-10.8 3-15.1z" fill="#f0c7b1" stroke-width="none" opacity="1"></path><path id="SvgjsPath7257" d="M138 92.9c1.9-2.4 3.8-5 5.9-7.2.5-.5 1.1-1.1 1.8-1.5.3-.2.7-.4 1.1-.5.4-.1.9.1 1.2.3.3.2.6.5.9.8.1.1.2.3.4.5l.3.6c.3.7.6 1.5.8 2.3.4 1.6.7 3.2.8 4.8.2 1.6.3 3.3.1 5-.1.9-.4 1.7-.6 2.5-.3.8-.6 1.6-.9 2.3-.7 1.5-1.4 3-2.1 4.4-.8 1.5-1.5 2.9-2.2 4.3-.8 1.4-1.4 3-2.7 4.3-.3.3-.7.6-1.1.8-.4.2-.9.2-1.3 0-.8-.3-1.3-.8-1.8-1.3-1-1.1-1.8-2.3-2.6-3.6-.4-.7-.7-1.4-1-2.1-.2-.4-.3-.7-.4-1.1-.1-.4-.3-.8-.3-1.3-.1-.9-.2-1.7-.2-2.6s.1-1.7.2-2.6c.4-3.4 1.7-6.7 3.7-9.1zm.1.1c-1 1.2-1.7 2.7-2.2 4.2-.5 1.6-.8 3.2-.9 4.8-.1 1.6 0 3.2.3 4.6 0 .2.1.3.1.5l.2.5c.1.3.3.7.4 1 .3.7.6 1.3 1 1.9.7 1.2 1.5 2.4 2.3 3.4.4.5.9.9 1.4 1.1.4.2.8 0 1.3-.4s.9-1 1.3-1.7c.4-.6.8-1.3 1.2-2 .8-1.4 1.7-2.8 2.5-4.1.8-1.4 1.6-2.8 2.3-4.2.4-.7.7-1.5.9-2.2.3-.8.5-1.6.6-2.3.1-1.6-.1-3.2-.4-4.7-.3-1.5-.7-3-1.1-4.5-.2-.7-.5-1.4-.8-2-.1-.1-.1-.3-.2-.4-.1-.1-.1-.2-.3-.3-.2-.2-.4-.5-.6-.6-.7-.6-2 .4-3.1 1.2-2.2 1.5-4.3 3.7-6.2 6.2z" fill="#e1ac8f" stroke-width="none" opacity="1"></path><path id="SvgjsPath7258" d="M148.8 99.4c.3-2.3.5-7.8-.8-9.6-2.2-2.9-6 6.4-6.9 9.3 0 .1-.1.2-.1.3-.2.3.1.7.4.6.4-.2.9-.6 1.3-.8 1.1-.5 1.6.5 1.3 1.8-.4 1.8-1.4 2.9-2.2 4.3-.1.2 0 .4.2.3 1.6-.9 3.5-4.5 3.1-6.6-.3-2-1.9-1.8-3.1-.8.7-1.7 1.5-3.3 2.5-4.8.6-.9 1.2-2 2.2-2.2 1.2-.2 1 .3 1.2 1.8.8 4.8.3 10.4-2.5 14.5-.1.1 0 .2.1.1 1.8-2.3 3-4.9 3.3-8.2z" fill="#d19271" stroke-width="none" opacity="1"></path></g></g><g id="svga-group-faceshape-wrap"><g id="svga-group-faceshape-single"><path id="SvgjsPath7335" d="M143.6 82c-1.2-30.1-20.8-46.6-43.6-46.6S57.6 51.9 56.4 82c0 .9-.1 1.9-.1 2.8 0 31.9 20.2 68.9 43.7 68.9s43.7-37 43.7-68.9c0-1 0-1.9-.1-2.8z" fill="#f0c7b1" stroke-width="none" opacity="1"></path><path id="SvgjsPath7336" d="M100 153.7c23.5 0 43.7-37 43.7-68.9 0-1 0-1.9-.1-2.8-1.2-30.1-20.8-46.6-43.6-46.6S57.6 51.9 56.4 82c0 .9-.1 1.9-.1 2.8 0 31.9 20.2 68.9 43.7 68.9zm-33.9-33.2c-1.4-3-2.7-6.1-3.8-9.2s-2-6.3-2.8-9.6c-3.1-12.9-3.4-27 1.8-39.4l1.1-2.2c.4-.7.7-1.5 1.1-2.2l1.3-2.1.7-1.1c.2-.3.5-.7.8-1 1-1.3 2-2.6 3.2-3.8.6-.6 1.1-1.2 1.7-1.8l1.9-1.6c5.1-4.2 11.2-6.8 17.5-8.1 1.6-.4 3.2-.5 4.8-.7.8-.1 1.6-.1 2.4-.1l2.4-.1c3.2.1 6.4.4 9.6 1.1.8.2 1.6.3 2.3.5l2.3.7 1.2.4 1.1.5 2.2.9c.7.3 1.4.8 2.1 1.1.7.4 1.5.7 2.1 1.2 1.3.9 2.8 1.7 4 2.8 5.1 4.1 9.3 9.4 12 15.5s4.1 12.8 4.4 19.6c.3 6.7-.5 13.5-2.2 20-1.6 6.5-4 12.8-7 18.8s-6.6 11.5-10.7 16.5c-2.1 2.5-4.4 4.8-6.8 6.8-2.5 2-5.1 3.7-8 4.9-2.8 1.2-5.8 1.9-8.8 1.9s-6-.7-8.8-1.9c-5.7-2.4-10.6-6.8-14.7-11.9-4.2-4.7-7.6-10.4-10.4-16.4z" fill="#c27b55" stroke-width="none" opacity="1"></path></g></g><g id="svga-group-mouth-single-move" transform="matrix(1,0,0,1,0,0)"><g id="svga-group-mouth-single"><path id="SvgjsPath7424" d="M86.62 127.55s2.05 2.59 5.62 4.12 13.46 4.37 22.92-4c0 0-1.83-1.01-4.25-2.59s-3.79-2.39-5.87-2.71-3.23.58-4.6.64c-1.37.05-2.88-.8-4.51-.66-3.58.3-9.36 4.5-9.36 4.5l.05.7z" fill="#da7c87" stroke-width="none" opacity="1" transform="translate(0 2)"></path><path id="SvgjsPath7425" d="M85.9 127.36c1.93 1.35 3.95.8 6.06.2 1.1-.31 1.84-.44 3.03-.4 1.4.05 1.65.32 2.77.82.84.37 1.64.61 2.55.48 1.07-.15 1.89-.82 2.89-1.19 2.34-.87 4.17.21 6.35.86 2.06.61 4.33 1.01 6.18-.31.5-.36.08-1.04-.47-.81-2.86 1.23-5.62-.26-8.45-.67-2.23-.32-3.49.46-5.64.81-2.45.4-4.48-1.02-6.92-1.03-2.61-.02-5.17 1.6-7.62 0-.78-.53-1.48.71-.73 1.24z" fill="#cb5f6c" stroke-width="none" opacity="1" transform="translate(0 2)"></path></g></g><g id="svga-group-eyes-left-move" transform="matrix(1,0,0,1,0,0)"><g id="svga-group-eyes-left"><g id="svga-group-eyesback-left"><path id="SvgjsPath7293" d="M89.2 98s-.1-2.4-1.3-4.2c-1.2-1.8-3.7-4.7-8.4-4.9S71 90.8 71 90.8s.5 3.5 2.2 4.9c1.7 1.4 4.6 3.5 9.3 3.3 4.8-.1 6.7-1 6.7-1z" fill="#ffffff" stroke-width="none" opacity="1"></path></g><g id="svga-group-eyesiriswrapper-left" transform="matrix(1,0,0,1,0,0)"><g id="svga-group-eyesiriscontrol-left" transform="matrix(1,0,0,1,0,0)"><g id="svga-group-eyesiris-left"><path id="SvgjsPath7370" d="M80.1 88.4c2.8 0 5.2 2.3 5.2 5.2s-2.3 5.2-5.2 5.2-5.2-2.3-5.2-5.2 2.3-5.2 5.2-5.2z" fill="#4e60a3" stroke-width="none" opacity="1"></path><path id="SvgjsPath7371" d="M80.1 90.8c1.5 0 2.8 1.2 2.8 2.8s-1.2 2.8-2.8 2.8-2.8-1.2-2.8-2.8 1.2-2.8 2.8-2.8z" fill="#000000" stroke-width="none" opacity="1"></path><path id="SvgjsPath7372" d="m79.4 91.3-.6-.6c-.2-.2-.4-.3-.7-.3-.2 0-.5.1-.7.3-.2.2-.3.4-.3.7s.1.5.3.7l.6.6c.2.2.4.3.7.3.2 0 .5-.1.7-.3.3-.5.4-1.1 0-1.4zm2.5 4.7c.9 0 .9-1.4 0-1.4s-.8 1.4 0 1.4z" fill="#ffffff" stroke-width="none" opacity="1"></path></g></g></g><g id="svga-group-eyesfront-left"><path id="SvgjsPath7301" d="M69.4 94.6c0 6.4 4.7 11.5 10.6 11.5 5.9 0 10.6-5.2 10.6-11.5S85.9 83.1 80 83.1c-5.8 0-10.6 5.1-10.6 11.5zm1.6-3.8s3.7-2.1 8.5-1.9c4.8.2 7.3 3 8.4 4.9 1.2 1.8 1.3 4.2 1.3 4.2s-2 .9-6.7 1c-4.7.1-7.6-1.9-9.3-3.3-1.7-1.4-2.2-4.9-2.2-4.9z" fill="#f0c7b1" stroke-width="none" opacity="1"></path><path id="SvgjsPath7302" d="M90.6 95.9c-2-3.6-4.1-6.6-8.3-7.9-4.3-1.4-8.1-.2-11.9 1.9-.2.1-.5-.2-.3-.4 6.3-5.7 18.8-2.3 20.6 6.3.1.2 0 .2-.1.1z" fill="#e1ac8f" stroke-width="none" opacity="1"></path><path id="SvgjsPath7303" d="M83.1 89.2c-4.8-2-10.6-.9-14.6 2.4-.5.4.1 1.1.6.8.5-.3 1-.6 1.6-.9 1.3 8.3 11.8 9.4 18.2 6.8.1.4.1.8.2 1.2 0 .3.5.4.6.1.7-4.5-2.5-8.7-6.6-10.4zm-4.6 8.9c-3.5-.9-6.2-3.4-6.7-7 0-.1 0-.1-.1-.1 3-1.5 6.2-2.3 9.7-1.3 4.2 1.2 6.7 4.2 7.5 8.2-3.6.2-6.9 1.2-10.4.2z" fill="#cd6e6e" stroke-width="none" opacity="1"></path></g></g></g><g id="svga-group-eyes-right-move" transform="matrix(1,0,0,1,0,0)"><g id="svga-group-eyes-right"><g id="svga-group-eyesback-right"><path id="SvgjsPath7294" d="M110.8 98s.1-2.4 1.3-4.2c1.2-1.8 3.7-4.7 8.4-4.9s8.5 1.9 8.5 1.9-.5 3.5-2.2 4.9c-1.7 1.4-4.6 3.5-9.3 3.3-4.8-.1-6.7-1-6.7-1z" fill="#ffffff" stroke-width="none" opacity="1"></path></g><g id="svga-group-eyesiriswrapper-right" transform="matrix(1,0,0,1,0,0)"><g id="svga-group-eyesiriscontrol-right" transform="matrix(1,0,0,1,0,0)"><g id="svga-group-eyesiris-right"><path id="SvgjsPath7373" d="M119.9 88.4c2.8 0 5.2 2.3 5.2 5.2s-2.3 5.2-5.2 5.2-5.2-2.3-5.2-5.2 2.4-5.2 5.2-5.2z" fill="#4e60a3" stroke-width="none" opacity="1"></path><path id="SvgjsPath7374" d="M119.9 90.8c1.5 0 2.8 1.2 2.8 2.8s-1.2 2.8-2.8 2.8-2.8-1.2-2.8-2.8 1.3-2.8 2.8-2.8z" fill="#000000" stroke-width="none" opacity="1"></path><path id="SvgjsPath7375" d="m119.3 91.3-.6-.6c-.2-.2-.4-.3-.7-.3-.2 0-.5.1-.7.3-.2.2-.3.4-.3.7s.1.5.3.7l.6.6c.2.2.4.3.7.3.2 0 .5-.1.7-.3.3-.5.4-1.1 0-1.4zm2.5 4.7c.9 0 .9-1.4 0-1.4s-.9 1.4 0 1.4z" fill="#ffffff" stroke-width="none" opacity="1"></path></g></g></g><g id="svga-group-eyesfront-right"><path id="SvgjsPath7304" d="M120 83.1c-5.9 0-10.6 5.2-10.6 11.5s4.7 11.5 10.6 11.5c5.9 0 10.6-5.2 10.6-11.5s-4.8-11.5-10.6-11.5zm6.8 12.6c-1.7 1.4-4.6 3.5-9.3 3.3-4.7-.1-6.7-1-6.7-1s.1-2.4 1.3-4.2c1.2-1.8 3.7-4.7 8.4-4.9 4.8-.2 8.5 1.9 8.5 1.9s-.5 3.5-2.2 4.9z" fill="#f0c7b1" stroke-width="none" opacity="1"></path><path id="SvgjsPath7307" d="M109.4 95.9c2-3.6 4.1-6.6 8.3-7.9 4.3-1.4 8.1-.2 11.9 1.9.2.1.5-.2.3-.4-6.3-5.7-18.8-2.3-20.6 6.3-.1.2 0 .2.1.1z" fill="#e1ac8f" stroke-width="none" opacity="1"></path><path id="SvgjsPath7308" d="M131.5 91.6c-4-3.3-9.7-4.4-14.6-2.4-4 1.7-7.3 5.9-6.6 10.4.1.3.5.2.6-.1 0-.4.1-.8.2-1.2 6.5 2.6 17 1.4 18.2-6.8.5.3 1 .6 1.6.9.4.3 1-.5.6-.8zm-3.2-.5c-.5 3.6-3.3 6.1-6.7 7-3.6 1-6.9 0-10.4-.3.8-3.9 3.3-7 7.5-8.2 3.5-1 6.7-.1 9.7 1.3-.1.1-.1.2-.1.2z" fill="#cd6e6e" stroke-width="none" opacity="1"></path></g></g></g><g id="svga-group-facehighlight-single"></g><g id="svga-group-eyebrows-left-move" transform="matrix(1,0,0,1,0,0)"><g id="svga-group-eyebrows-left-rotate" transform="matrix(1,1.7453292519943295e-9,-1.7453292519943295e-9,1,1.4176201545978984e-7,-1.3606350535155798e-7)"><g id="svga-group-eyebrows-left"><path id="SvgjsPath7726" d="M68.1 81c.2-.2.4-.5.6-.7.1-.2.2-.4.4-.6.3-.4.6-.7 1-1 .2-.2.6-.3.8-.1.3-.3.7-.5 1.1-.7 1.2-.7 2.4-1.3 3.8-1.2 1.2-.3 2.5-.2 3.6-.2 1.7 0 3.4.2 5 .8 1 .3 3 1.3 4 2.5 1.2.6 2.1 1.6 2.3 3.1.2 1.5-1 2.5-2.3 3-1.7.6-3.2-.1-4.6-1-.8-.5-1.6-.9-2.5-1.4-1.5-.4-3-.6-4.6-.8-.6-.1-1.1-.2-1.7-.3h-.1c-.1.1-.2.2-.4.3-.4.2-.9.4-1.5.5-1.2.5-2.4 1-3.5 1.6-.2.1-.3.1-.5.1-.3.4-.7.7-1.3.5-.4-.1-.6-.4-.7-.8-.2-.1-.4-.4-.5-.7 0-1 1-2.1 1.6-2.9z" fill="#2a232b" stroke-width="none" opacity="1"></path><path id="SvgjsPath7727" d="M84 77.8c2.6 1.4 3.5 5 3.5 7.8 0 .2-.4.3-.4.1-.3-1.4-.5-2.8-1-4.1-.5-1.3-1.3-2.4-2.3-3.5-.1-.2 0-.4.2-.3zm4.1 7.9c.4-.8.8-1.5 1-2.4.1-.9.1-1.7-.1-2.6 0-.2.2-.3.3-.2 1 1.6.7 4.3-.9 5.4-.2.2-.4 0-.3-.2zm-11.8-8.6c.3.1.6.2.8.4 0-.1.1-.1.2-.1 3 .2 5.5 4.2 5.7 6.8 0 .3-.4.3-.5.1-.6-1.4-1.2-2.8-2.1-4-.6-.7-1.2-1.2-1.9-1.7 1 1.1 1.6 2.6 1.8 3.9 0 .2-.3.3-.3.1-.4-1.1-.9-2.1-1.6-3-.7-.8-1.5-1.4-2.3-2.2-.2-.1 0-.3.2-.3zm-3.4.8c2.3-.1 4.4 2.5 4.7 4.5.1.3-.3.5-.5.2-.7-.9-1-2-1.8-2.8-.7-.7-1.7-1.1-2.5-1.6-.2 0-.1-.3.1-.3zm-2.5 2c1.9-.2 3.8 1.1 4.7 2.5.1.2-.1.3-.3.2-.6-.6-1.3-1.2-2.1-1.6-.8-.4-1.6-.5-2.5-.8-.1 0 0-.3.2-.3zm-1.2 2.4c1.1-.1 2 .3 2.8 1.1.1.1 0 .2-.1.2-.8-.6-1.7-.9-2.6-.9-.2-.2-.2-.4-.1-.4z" fill="#3a353a" stroke-width="none" opacity="1"></path><path id="SvgjsPath7728" d="M91 84.6c1-1.4.6-3.9-.6-5.1-.2-.2-.5.1-.4.3.1.1.1.2.2.4-.4-.6-.8-1.1-1.3-1.6-3.4-3.2-8.6-3.5-13-2.8-4.2.7-8.1 2.9-9.3 7.2v.2c-.1 0-.2.1-.2.2-.8 1.3.4 2.8 1.8 2.9 1 .1 2-.4 2.8-.9 1.3-.7 2.6-1.3 4-1.6 3-.5 5.5.5 8.1 1.8 1.6.8 3.3 1.5 5.2 1.1 1.5-.4 2.4-1.1 2.7-2.1zm-7.4-7.3c.7 1.5 1.3 3 1.7 4.6.3 1.1.4 2.3.5 3.4-.6-.2-1.2-.4-1.7-.7.3-2.7-.8-5.6-2.5-7.7.7.1 1.4.2 2 .4zm-8.1 5.1c-.3-1.1-.8-2-1.5-2.9-.4-.5-.9-1.1-1.5-1.6.8-.3 1.6-.6 2.5-.7.9.7 1.7 1.3 2.4 2.1.8 1 1.5 2.1 2 3.2-.3-.1-.5-.1-.8-.2-1 0-2.1 0-3.1.1zm-4-4c.6.6 1.3 1 1.9 1.7.6.7 1.1 1.6 1.5 2.4-.5.1-.9.2-1.4.3-.6-.7-1.2-1.4-1.9-1.9-.6-.4-1.3-.9-2-1.2.6-.5 1.2-.9 1.9-1.3zm-4.4 4.8c.4-1.2 1.1-2.2 1.9-3 .7.4 1.5.7 2.1 1.2.7.5 1.3 1.1 1.8 1.7-.8.3-1.5.7-2.3 1.1-.9.5-3.9 1.9-3.6-.6 0-.1 0-.2-.1-.2l.2-.2zm14-6.3c.8 1.2 1.4 2.4 1.8 3.7.4 1.2.5 2.4.6 3.7-1.2-.6-2.3-1.2-3.6-1.5-.6-2.1-2-4.3-3.8-5.7 1-.1 1.9-.2 2.9-.2h2.1zm8.8 7.2c-.6 1.4-2 1.6-3.3 1.4.1-2.7-1-5.8-2.3-8.1.7.2 1.3.4 1.9.7 1.8 1 4.8 3.6 3.7 6z" fill="#1b141c" stroke-width="none" opacity="1"></path></g></g></g><g id="svga-group-eyebrows-right-move" transform="matrix(1,0,0,1,0,0)"><g id="svga-group-eyebrows-right-rotate" transform="matrix(1,1.7453292519943295e-9,-1.7453292519943295e-9,1,1.4176202967064455e-7,-2.127084570702209e-7)"><g id="svga-group-eyebrows-right"><path id="SvgjsPath7729" d="M131.9 81c-.2-.2-.4-.5-.6-.7-.1-.2-.2-.4-.4-.6-.3-.4-.6-.7-1-1-.2-.2-.6-.3-.8-.1-.4-.3-.7-.5-1.1-.7-1.2-.7-2.4-1.3-3.8-1.2-1.2-.3-2.5-.2-3.6-.2-1.7 0-3.4.2-5 .8-1 .3-3 1.3-4 2.5-1.2.6-2.1 1.6-2.3 3.1-.2 1.5 1 2.5 2.3 3 1.7.6 3.2-.1 4.6-1 .8-.5 1.6-.9 2.5-1.4 1.5-.4 3-.6 4.6-.8.6-.1 1.1-.2 1.7-.3h.1c.1.1.2.2.4.3.4.2.9.4 1.5.5 1.2.5 2.4 1 3.5 1.6.2.1.4.1.5.1.3.4.7.7 1.3.5.4-.1.6-.4.7-.8.2-.1.4-.4.5-.7 0-1-1-2.1-1.6-2.9z" fill="#2a232b" stroke-width="none" opacity="1"></path><path id="SvgjsPath7730" d="M116 77.8c-2.6 1.4-3.5 5-3.5 7.8 0 .2.4.3.4.1.3-1.4.5-2.8 1-4.1.5-1.3 1.3-2.4 2.3-3.5.1-.2 0-.4-.2-.3zm-4.1 7.9c-.4-.8-.8-1.5-1-2.4-.1-.9-.1-1.7.1-2.6 0-.2-.2-.3-.3-.2-1 1.6-.7 4.3.9 5.4.2.2.4 0 .3-.2zm11.8-8.6c-.3.1-.6.2-.8.4 0-.1-.1-.1-.2-.1-3 .2-5.5 4.2-5.7 6.8 0 .3.4.3.5.1.6-1.4 1.2-2.8 2.1-4 .6-.7 1.2-1.2 1.9-1.7-1 1.1-1.6 2.6-1.8 3.9 0 .2.3.3.3.1.4-1.1.9-2.1 1.6-3 .7-.8 1.5-1.4 2.3-2.2.2-.1 0-.3-.2-.3zm3.4.8c-2.3-.1-4.4 2.5-4.7 4.5-.1.3.3.5.5.2.7-.9 1-2 1.8-2.8.7-.7 1.7-1.1 2.5-1.6.2 0 .1-.3-.1-.3zm2.5 2c-1.9-.2-3.8 1.1-4.7 2.5-.1.2.1.3.3.2.6-.6 1.3-1.2 2.1-1.6.8-.4 1.6-.5 2.5-.8.1 0 .1-.3-.2-.3zm1.2 2.4c-1.1-.1-2 .3-2.8 1.1-.1.1 0 .2.1.2.8-.6 1.7-.9 2.6-.9.2-.2.2-.4.1-.4z" fill="#3a353a" stroke-width="none" opacity="1"></path><path id="SvgjsPath7731" d="M111.7 86.7c1.8.4 3.5-.3 5.2-1.1 2.6-1.3 5.1-2.3 8.1-1.8 1.5.2 2.7.8 4 1.6.9.5 1.8 1 2.8.9 1.4-.1 2.6-1.6 1.8-2.9l-.2-.2V83c-1.2-4.3-5.1-6.6-9.3-7.2-4.4-.7-9.5-.4-13 2.8-.5.4-.9 1-1.3 1.6.1-.1.1-.2.2-.4.1-.3-.2-.5-.4-.3-1.2 1.1-1.6 3.6-.6 5.1.3 1 1.2 1.7 2.7 2.1zm4.7-9.4c.7-.2 1.3-.3 2-.3-1.7 2.1-2.8 5-2.5 7.7-.5.2-1.1.5-1.7.7.2-1.2.2-2.3.5-3.4.4-1.7 1-3.2 1.7-4.7zm5 5.2c-.3 0-.5.1-.8.2.6-1.2 1.2-2.2 2-3.2.7-.8 1.6-1.5 2.4-2.1.8.2 1.7.4 2.5.7-.6.4-1.1 1-1.5 1.6-.7.9-1.2 1.8-1.5 2.9-1-.3-2.1-.3-3.1-.1zm9-2.8c-.7.3-1.4.8-2 1.2-.7.6-1.4 1.2-1.9 1.9-.5-.1-.9-.2-1.4-.3.4-.8.9-1.7 1.5-2.4s1.2-1.1 1.9-1.7c.7.4 1.3.8 1.9 1.3zm2.5 3.6c-.1.1-.1.1-.1.2.3 2.5-2.6 1.1-3.6.6-.7-.4-1.5-.8-2.3-1.1.6-.6 1.2-1.2 1.8-1.7.6-.5 1.4-.8 2.1-1.2.8.8 1.5 1.8 1.9 3 .2.1.2.1.2.2zm-11.8-6.4c.9 0 1.9.1 2.9.2-1.8 1.3-3.2 3.6-3.8 5.7-1.3.3-2.4.9-3.6 1.5.1-1.2.2-2.5.6-3.7.4-1.3 1.1-2.5 1.8-3.7h2.1zm-7.2 1.3c.6-.3 1.2-.6 1.9-.7-1.4 2.3-2.5 5.3-2.3 8.1-1.4.2-2.7 0-3.3-1.4-1.2-2.5 1.8-5.1 3.7-6z" fill="#1b141c" stroke-width="none" opacity="1"></path></g></g></g><g id="svga-group-beardwrap"><g id="svga-group-beard-single-move" transform="matrix(1,0,0,1,0,0)"><g id="svga-group-beard-single"><path id="SvgjsPath7209" d="M145.5 112.7c-.3-5.3.2-17.7-4-18.7-4.1-.9-5.4 7.3-6.8 15.4s-2.9 15.7-8.2 14.8c-5.3-.9-1.6-5.2-5.4-7.4-3.8-2.3-11.2.3-14 1.5-2.8 1.2-9.1 1.5-14.2-.3s-11.9-2.3-14.2.3-.6 4.4-3.2 6.1-7.7-.8-8.7-6.1-1.2-13.5-1.9-17.1c-.6-3.6-1.7-7.4-4-7.4-3.7 0-5.4 4.9-5.9 8.7-.5 3.8-1 17.5 0 22.2.5 2.9.8 9.1 5.1 13.9s22.4 19.2 29.5 21.8 13.5 2.4 19.9.5c6.3-1.8 26.4-16.8 30.3-22.5 7.3-9.4 6-20.5 5.7-25.7zm-29 20c-3.5 6.6-7.6 7.3-9.3 7.8s-2.6-.4-2.6-1.6 0-2.1-.6-2.1-6.4-.2-7.4-.2-.8.6-.9 2.3c-.1 1.6-1.9 2-4.3 1s-7.2-6.9-8.6-11.5-1.2-5.4.6-4.9c.9.2 4.7 1.2 7.9 1.4s7.2-.2 8.6-.8c1.4-.5 6 .9 9.3.8s6.8-1.1 8.7-1.8c1.9-.8 2 3.2-1.4 9.6z" fill="#2a232b" stroke-width="none" opacity="1"></path><path id="SvgjsPath7210" d="M55.4 118.9c0-.1-.1-.1-.1 0-.2.8-.3 1.6-.5 2.4.3-4.3.5-8.7.8-13 0-.2-.2-.2-.3-.2.3-1.9.6-3.8.8-5.8 0-.3-.4-.4-.5-.1-.2.8-.4 1.5-.5 2.3.5-3 .9-7.7 3.6-9.4.2-.1.1-.4-.2-.4-1.4.4-2 1.6-2.4 2.9-.8 2.3-1.2 4.8-1.3 7.2 0 .1.2.2.2 0v-.1c-.4 2.2-.5 4.6-.5 6.8-.6 4-.8 8.2-.3 12 0 .2.2.2.3.1-.1 2.1.2 4.3 1.1 6.3.1.3.5.1.4-.1-.8-3.7-1.4-7.2-.6-10.9zm3 13.9c0-.2-.2-.2-.3-.1-.2-2.1-.4-4.1-.1-6.2 0-.3-.5-.4-.5-.1-.5 2.7-.5 5.5.4 8.1.1.2.5.2.4-.1v-.1c.5 2 1.2 4 2.6 5.5.2.2.5-.1.4-.3-1.3-2.3-2.4-4.3-2.9-6.7zM83 156.9c-2.6-2.6-5.1-5.2-7.2-8.3-.1-.1-.2 0-.2.1 1.8 3.2 4 6.3 7 8.5.3.2.6-.1.4-.3zm-4.2-2.7v-.1c-.4-.5-.9-1-1.3-1.6-.3-.5-.5-1.2-.8-1.7-.1-.1-.2-.1-.3.1-.1.5.1 1.1.4 1.6-2.3-1.8-4.9-3.5-6.2-6.2-.1-.2-.3-.1-.3.1.2.4.4.8.7 1.2-2.2-2-4.5-3.9-6.6-6.1-.2-.2-.5 0-.3.2.5.6 1.1 1.2 1.7 1.8-2.2-2-4.1-4.1-6-6.4-.1-.1-.3 0-.2.2 2 3 4.1 6.3 7.4 7.9.1.1.2 0 .3-.1 1.3 1.3 2.8 2.5 4.4 3.4h.1c1.7 2.2 4.1 3.8 6.4 5.4.1.1.2.1.2.2.1.1.2.2.4.2 0 .2.2.1 0-.1 0 .1 0 0 0 0zm6.1 1.5c-.2-.2-.4 0-.4.2-1.6-1.4-3.3-2.9-4.8-4.4-.2-.2-.6.1-.4.4 2.8 3 5.8 6.1 9.2 8.4.2.2.5-.2.3-.4l-.6-.6c1.7 1.4 3.6 2.6 5.6 3.1.1 0 .2-.1.1-.2-2.9-2.3-6.2-4-9-6.5zm7.9 4.7c-.3-.2-.7.3-.3.5 1.7.8 3.7 1.9 5.6 1.7.2 0 .4-.3.1-.4-1.7-.8-3.6-1-5.4-1.8zm13.9.2c-2.4.5-4.5 1.4-7 1.5-.4 0-.5.5-.1.6 1.2.3 2.3-.1 3.4-.4 1.3-.4 2.6-.9 3.8-1.5.1 0 0-.2-.1-.2zm4.9-1.4c-2.1 1.2-4 2.6-6.4 2.8-.2 0-.2.3 0 .3 2.5-.2 4.7-1.4 6.6-2.9.1-.1 0-.3-.2-.2zm5.9-4.3c-1.2.9-2.4 1.9-3.6 2.8-1.3 1.1-2.8 2.5-4.3 3.3-.2.1-.1.5.2.4 1.4-.4 2.6-1.5 3.7-2.4 1.5-1.2 3-2.4 4.3-3.7.1-.3-.1-.6-.3-.4zm26.8-53c-.2-2.2-.8-4.2-1.4-6.3-.1-.2-.5-.2-.4.1.5 2.1.9 4.2 1.5 6.2.1.2.3.2.3 0zm.5.7c0-.2-.4-.1-.3 0 .2 2.3.5 4.7.9 7-.1-.1-.3 0-.3.1 0 3.8-.1 7.6 0 11.3-.2 2.8-.5 5.6-.9 8.3 0 .2.3.3.3.1.8-2.9 1.1-5.9 1.2-8.8.3-3.4.2-6.8-.2-10.2.2.8.4 1.5.6 2.2.1.2.4.1.4-.1-.5-3.2-1.2-6.6-1.7-9.9zm-1.6 25.2c0-.2-.2-.2-.3 0-.2 1-.2 2.1-.4 3.1-1.3 3-3 5.4-5 7.9.2-.3.3-.6.5-1 .1-.2-.2-.4-.4-.2-1.1 1.7-2.3 3.4-3.4 5-.1-.2-.4-.3-.6-.1-2 2.4-4.3 4.5-6.4 6.8 0-.1-.1-.3-.3-.2-2.3 1.3-4.4 3-6.4 4.8h-.2c-2.4 1.6-4.7 3.6-6.9 5.5-.1.1 0 .3.2.2 1.9-1.4 3.9-2.8 5.7-4.3.1 0 .2.1.2 0 2.5-1.8 5.1-3.6 7.4-5.7-.2.2.1.5.3.3 2.3-1.6 4.3-3.8 6.1-6-.2.2-.3.5-.5.7v.1l-.6.6c-.2.3-.5.6-.6 1 0 .1.1.2.2.1.4-.2.6-.6.9-.9.2-.2.3-.4.5-.6 1.4-1.3 2.6-2.9 3.6-4.6h.3c.8-.6 1.6-1.4 2.2-2.2-.1.2-.2.3-.3.5-.6.9-1.4 1.7-2.1 2.6-.4.4-.8.9-1.2 1.3-.9.8-1.8 1.6-2.5 2.5-.2.2.1.5.3.3.9-.9 1.8-1.8 2.8-2.7.6-.6 1.2-1.2 1.6-1.9 1.3-1.2 2.4-3 2.8-4.7.3-.6.6-1.1.9-1.7.5-1 1-2.1 1.3-3.1 0-.1 0-.2.1-.3 0-.1 0-.1.1-.2v-.1c.1-.8.1-1.8.1-2.8zm-58.8-4.9c-.4-.1-.9-.1-1.4-.2-1-.1-1.9-.4-2.9-.3-.2 0-.3.3-.1.4 1 .6 2.4.8 3.8.9 1.7.5 3.6.7 5.4.7 0 .1 0 .2.1.2 3.6 1 8.1.6 11.6-1 4.1 1.6 9.1 1.5 13.4.5 2.2.2 4.5-.5 6.4-1.4.3-.1.1-.5-.2-.4-2 .4-3.8 1.1-5.8 1.2h-.1c-.2 0-.5-.1-.7-.1-2.8-.4-5.5-1.2-8.2-2.4-.2-.1-.4.2-.2.3 1.5.8 3.1 1.5 4.8 2-3.5.1-7.1.6-10.4-1.2-.2-.1-.3.2-.2.3.5.3 1.1.6 1.6.8h-.1c-.2.1-.3.1-.5.1-.1 0-.2 0-.2.1-3.1.8-5.9 1.2-9.1 1.2 2-.2 4-.5 5.8-1 .2 0 .1-.3 0-.3-2.7.2-5.2.4-7.8.4 3.5-.3 7-1.3 10.1-3 .2-.1.1-.4-.2-.4-4.9 1.8-9.7 2.7-15 2.8.2-.3.2-.2.1-.2zm26.4.7c-3.1.2-6 .4-9.2-.4.1-.1.1-.2 0-.3 2.8 1 6 .8 9.2.7zm-51.3-23c-1 2.4-1.8 4.9-1.6 7.6 0 .1 0 .1.1.1-.5 1.1-.7 2.3-.4 3.6 0 .2.3.2.3-.1 0-1.4.1-2.8.7-4.1.1-.2-.2-.4-.3-.2.3-2.4.7-4.7 1.5-6.9 0 0-.3-.1-.3 0zm-1.2 11.2c-1.2 2.9-1.9 6.1-1.4 9.3 0 .1.1.2.2.2 0 .7 0 1.4.2 2.1.1.3.4.2.5-.1.1-1.9.2-3.8.4-5.6 0-.3-.4-.3-.5-.1 0 .1-.1.3-.1.4.2-2 .4-4.1 1-6.1 0-.2-.3-.3-.3-.1zm.6 10.4c-.1 1.7-.2 3.4-.1 5 0 .2.4.3.4.1.2-1.7.2-3.4.2-5.1 0-.3-.5-.3-.5 0zm7.3 11.4c.4 1.5.8 2.9 1.3 4.4 0 .1.1 0 .1 0-.3-1.5-.8-2.9-1.1-4.4-.1-.2-.3-.2-.3 0zm2.4 3.2c.2 1.5.6 3.1 1.5 4.4.1.1.3.1.3-.1-.5-1.5-1.1-2.9-1.4-4.4-.1-.2-.5-.1-.4.1zm4.8 7.7c-.6-1.9-1.5-3.6-2.1-5.5-.1-.3-.5-.1-.4.1.5 1.9 1.1 3.9 2.2 5.5.1.2.4.1.3-.1zm2.4 2c.1.1.3.1.3-.1-.4-1.1-1-2.2-1.5-3.3-.1-.3-.5 0-.4.2.5 1.1.9 2.3 1.6 3.2zm2.3 2.4c.1.1.3.1.3-.1-.4-1.2-1.1-2.3-1.8-3.3-.1-.2-.5 0-.4.2.7 1 1.2 2.2 1.9 3.2zm3-.8c.4 1.5 1 3 2.1 4.2.2.2.4 0 .3-.2-.7-1.4-1.6-2.6-2.1-4-.1-.2-.3-.2-.3 0zm5.5 7c.1.1.3-.1.2-.2-1-1.2-2.1-2.4-2.9-3.8-.1-.2-.4 0-.3.2.8 1.4 1.7 2.8 3 3.8zm2.4 1.3c.1.1.3 0 .2-.2-.7-1-1.7-1.9-2.5-2.9-.2-.2-.5.1-.3.3.8 1 1.6 2 2.6 2.8zm2.7 1.3c.1.1.2 0 .2-.1-.6-.9-1.5-1.8-2.2-2.6-.2-.2-.5.1-.3.3.7.8 1.4 1.7 2.3 2.4zm3.1 1.6c.1 0 .3-.1.1-.2-.5-.4-1-.7-1.5-1.2-.2-.2-.5.1-.3.3.6.4 1.1.9 1.7 1.1zm-31.9-30.4c.2 1.8.8 3.3 1.8 4.9.1.2.4 0 .3-.2-.9-1.4-1.5-3-1.9-4.7 0-.1-.2-.1-.2 0zm-.4 1.3c.2.7.5 1.4.9 2 .1.2.4 0 .3-.2-.5-1-.9-2-1.3-3.1 0-.1-.3-.1-.2.1 0 .2.1.4.1.5-.6-1.3-1-2.7-1.2-4.1 0-.1-.2-.1-.2 0 .1 1.7.6 3.2 1.4 4.7 0 .2.1.2.2.1zm43.8 28.8c1.4-1.1 2.8-2.4 3.6-4 .1-.1-.1-.3-.2-.2-1.2 1.4-2.2 2.8-3.7 4-.1.1.1.3.3.2zm2.6-1.6c.4-.4.8-.9 1.1-1.3.3-.4.7-1 .8-1.5.1-.2-.3-.4-.4-.2-.3.4-.5.9-.8 1.4-.3.5-.7.9-1.1 1.3-.1.2.2.5.4.3zm2.1-1.2c.8-.7 1.7-1.7 1.9-2.7 0-.1-.2-.3-.3-.2-.7.9-1.2 1.8-1.9 2.6-.1.3.1.5.3.3zm2.6-1.6c.6-.6 1.2-1.3 1.7-2 .2-.3-.2-.5-.4-.3-.6.6-1.2 1.2-1.7 1.8-.4.3.1.8.4.5zm10-7.5c.6-.3.8-1 1.1-1.6.3-.7.5-1.5.6-2.3 0-.2-.3-.2-.3 0-.3.7-.6 1.5-.9 2.2-.2.5-.6 1-.6 1.6-.1 0 0 .1.1.1zm2.1-1.7c.6-.8.7-2 1-2.9.1-.3-.4-.5-.5-.1-.3.9-.8 2-.8 3-.1.1.2.2.3 0zm1.5-1.3c.6-.8.7-2.1.8-3 0-.2-.4-.3-.4-.1l-.3 1.5c-.1.5-.3.9-.4 1.4-.1.2.1.3.3.2zm1.2-1.2c.5-.6.6-1.6.5-2.3 0-.3-.5-.3-.5 0 0 .4 0 .7-.1 1.1-.1.3-.2.6-.3 1-.1.1.2.3.4.2zm3.2-3.4c.6-1 .5-2.7.6-3.8 0-.1-.2-.1-.2 0-.1.7-.2 1.4-.4 2.1-.1.5-.3 1.1-.2 1.6-.1.2.1.2.2.1zm1.7-2.2c.2-.4.1-.9.2-1.4 0-.5.1-1.1.1-1.6 0-.2-.4-.2-.4 0-.1 1-.4 2.1-.2 3.1.1.1.3.1.3-.1zm1-1.1c.3-.3.2-.8.3-1.2v-1.6c0-.3-.5-.3-.5 0v1.5c0 .4-.2.9 0 1.3 0 .1.1.1.2 0zm1.1-1.5c.4-.8.4-1.8.2-2.6-.1-.2-.4-.1-.3.1.1.8 0 1.6-.1 2.4 0 .2.2.3.2.1zm6.5-23.5c.1 2.8.1 5.7.2 8.5 0 .2.2.1.2 0 .2-2.9.2-5.7 0-8.5 0-.2-.4-.2-.4 0zm-.6 10.8c0 .2.3.2.3 0 .4-1.5.3-3.1.1-4.7 0-.3-.4-.3-.4 0 .1 1.6.1 3.1 0 4.7zm-2.2 6.4c.5-.8.9-1.8 1-2.8v.2c0 .2.3.3.4.1.6-1.6.6-3.4.5-5.1 0-.3-.5-.3-.5 0 .1 1.2-.1 2.3-.2 3.4.1-.5.1-1 .1-1.4 0-.3-.5-.3-.5 0-.1 1-.2 2-.4 2.9-.2.8-.6 1.7-.7 2.5-.1.2.2.4.3.2zm-1.4 1.2c.7-1.1.9-2.5 1.1-3.7 0-.3-.4-.4-.4-.1-.2 1.3-.7 2.4-1.1 3.7 0 .2.3.3.4.1zm-1 .6c.5-1.1.6-2.3.9-3.4.1-.3-.4-.5-.5-.1-.3 1.1-.7 2.3-.8 3.5 0 .1.3.2.4 0zM90.3 153c-.8-1.8-1.5-3.6-1.9-5.5-.1-.3-.5-.2-.4.1.4 2 1 3.8 2.1 5.5.1.2.2.1.2-.1zm2.2 2.3c.5.9 1.1 1.7 1.9 2.4.1.1.3 0 .2-.2-1.2-1.7-2.3-3.4-3.1-5.3-.1-.2-.4-.1-.3.1.2.7.5 1.3.8 1.9-.8-1.3-1.6-2.5-2.1-3.9-.1-.2-.4-.1-.3.1.6 1.7 1.4 3.6 2.7 4.9 0 .1.1.1.2 0zm4 4.5c.2.1.3-.1.2-.2-.7-1.1-1.6-2-2.2-3.2-.1-.2-.4-.1-.3.1.5 1.1 1.2 2.5 2.3 3.3zm1.8.7c-.5-.9-1.1-1.8-1.6-2.7-.1-.2-.5 0-.4.2.5.9 1.1 1.9 1.9 2.6 0 0 .1 0 .1-.1zm1.2-.4c-.3-.5-.6-.9-.8-1.5-.1-.2-.4-.1-.3.1.2.6.4 1.1.8 1.6.2 0 .4-.1.3-.2zm-16.4-18.7c.3 1.6.8 3.3 1.8 4.7.1.1.4.1.3-.1-.6-1.5-1.3-3-1.7-4.6-.1-.4-.4-.3-.4 0zm1.3 4.6c-.5-1.6-1.3-3.1-2-4.7-.1-.1-.3 0-.2.1.6 1.6 1.2 3.2 1.9 4.7.1.2.3.1.3-.1zm-.9.4c-1.1-2-2.3-3.9-3.2-6-.1-.1-.3 0-.3.1.9 2.1 1.8 4.2 3.2 6.1.1.2.4 0 .3-.2zm-2.8-1.7c-.5-1.7-1.3-3.3-2.2-4.9-.1-.1-.3 0-.2.1.8 1.6 1.4 3.3 2.2 4.9 0 0 .2 0 .2-.1zm-2.9-2.8c-.4-1.3-.9-2.5-1.4-3.8-.1-.2-.5-.1-.4.1.5 1.3 1 2.6 1.6 3.8.1.1.2 0 .2-.1zM62 108.1c.2-1.1.3-2.2.5-3.3.2-1 .5-1.9.6-2.9 0-.2-.2-.2-.3-.1-.8 1.8-1.2 4.2-1.1 6.2 0 .2.3.3.3.1zm.8 2.8c0 .4-.1.8-.1 1.2.1-1.7.1-3.4.3-5.1 0-.2-.3-.2-.3 0-.2 1.8-.4 3.7-.3 5.5 0 .2.2.2.2 0-.1 1.3-.1 2.7.2 4 0 .1.2.1.2 0 0-1.8-.1-3.6.1-5.5.1-.3-.3-.4-.3-.1zm1.3 10.1c-.2-1.9-.3-3.7-.1-5.5 0-.2-.3-.2-.3 0-.3 1.8-.3 3.8.2 5.6-.1.1.2.1.2-.1zm2 4.5c-.6-2.1-1.2-4.1-1.4-6.4 0-.2-.3-.2-.3 0 0 2.2.2 4.5 1.4 6.5.1.1.3 0 .3-.1zm1.3.8c-.3-.7-.7-1.4-1-2.1-.1-.2-.4-.1-.4.1.2.7.5 1.7 1.1 2.2.1.1.4 0 .3-.2zm1.6 1.1c.1.1.3 0 .3-.2-.3-.8-.9-1.6-1.4-2.3-.1-.2-.5 0-.4.2.5.8.9 1.6 1.5 2.3zm9.1 3.6c-.2-1.1-.5-2.2-.8-3.3-.1-.2-.1-.5-.2-.7-.1-.3-.1-.6-.2-.9 0-.2-.3-.1-.2.1.2 1.6.5 3.4 1.1 4.9.1.1.4.1.3-.1zm.9-1.5c-.3-1.8-.7-3.6-.9-5.5 0-.3-.5-.3-.4 0 .2 1.9.4 3.8 1.1 5.6 0 .1.2.1.2-.1zm.1-2.5c.3 3.3 1.3 6.6 3.2 9.3.1.2.5 0 .3-.2-1.6-3-2.7-5.8-3.2-9.2.1-.1-.3-.1-.3.1zm6.5 13.6c-1-1.9-2.1-3.7-2.9-5.6-.1-.2-.4 0-.3.2.9 1.9 1.8 3.9 3 5.6 0 .1.3 0 .2-.2zm35.1-18c0 .4.1.8.1 1.3.1 1.8.1 3.6.1 5.5 0 .1.2.1.2 0 .5-2.3.3-4.6 0-6.8 0-.2-.4-.2-.4 0zm-.2 9.2c.4-2.2.2-4.4 0-6.6 0-.2-.4-.2-.4 0 .2 2.2 0 4.3.1 6.5 0 .2.3.3.3.1zm-.7-2.7c-.4 1.8-1 3.5-1.5 5.3-.1.2.2.3.3.1.8-1.6 1.3-3.5 1.6-5.3 0-.3-.4-.4-.4-.1zm-5.5 8.7c-.8 1.8-1.7 3.6-2.3 5.4-.1.2.2.3.3.1.9-1.8 1.6-3.6 2.3-5.4.1-.1-.2-.2-.3-.1zm-4.5 7.6 1.2-2.4c.1-.2-.2-.3-.3-.1-.4.8-.7 1.6-1.1 2.4 0 .1.2.1.2.1zm-.5-2.6c-.7 1.9-1.6 3.8-2.6 5.6-.1.2.2.3.3.2 1.2-1.7 2.1-3.6 2.7-5.6.1-.4-.3-.5-.4-.2zM94 151.3c-.7-2.1-1.4-4.2-1.8-6.4 0-.2-.4-.1-.3.1.4 2.2.9 4.4 1.9 6.4-.1.2.2 0 .2-.1zm2.8 3.3c-.9-1.7-1.7-3.3-2.1-5.1-.1-.3-.5-.2-.4.1.4 1.8 1.1 3.7 2.3 5.2.1.2.3 0 .2-.2zm2.6 2.2c-.5-1-1-1.9-1.5-2.9-.1-.3-.6-.1-.4.1.4 1 .9 2.1 1.7 2.9.1.2.2 0 .2-.1zm5.5-4.5c-.2.9-.3 1.8-.4 2.7 0 .1.2.1.2 0 .3-.8.4-1.7.6-2.6.1-.3-.4-.4-.4-.1zm1.5 1.1c0 .8-.2 1.5-.2 2.3 0 .2.3.3.4.1.4-.7.4-1.6.4-2.4 0-.4-.6-.4-.6 0zm-25.2-32.3c4.8 1 9.8-.1 14.4-1.6.2-.1.1-.4-.1-.3-4.8 1-9.3 2-14.3 1.7-.2-.1-.2.2 0 .2zm-3.1 0c1.1-.9 2.2-1.8 3.5-2.4.2-.1.1-.3-.1-.3-1.4.5-2.8 1.3-3.6 2.5-.1.2.1.3.2.2zm27.7-1.6c3.1-.1 6-1.3 9.1-1.2.1 0 .1-.2 0-.2-3.1-.3-6.1.6-9.1 1.2-.2 0-.2.2 0 .2zm18.2 10.7c-.5-3.7-1.1-7.4-1.4-11.1 0-.2-.3-.2-.3 0 .2 3.7.3 7.6 1.3 11.2.1.3.4.2.4-.1zm-2.8 3.2c-.9 2.1-1.2 4.3-2.2 6.3-.1.2.1.4.3.2 1.5-1.9 1.6-4.2 2.4-6.4.1-.3-.4-.4-.5-.1zm-5.7 13.8c1.1-2.3 1.9-4.7 2.5-7.2.1-.3-.4-.5-.5-.1-.6 2.4-1.4 4.8-2.3 7.2-.1.1.2.2.3.1zM78.2 136c-.4-2.2-1.1-4.3-1.8-6.4-.1-.3-.6-.2-.5.1.6 2.2 1.1 4.3 2 6.4.1.2.4.1.3-.1zm.1-1.5c1 2.1 1.9 4.2 3.2 6.2.1.2.5.1.4-.2-.9-2.1-2.2-4.1-3.3-6.2-.1-.1-.4 0-.3.2z" fill="#1b141c" stroke-width="none" opacity="1"></path></g></g></g><g id="svga-group-mustache-single-move" transform="matrix(1,0,0,1,0,0)"><g id="svga-group-mustache-single"></g></g><g id="svga-group-nose-single-move" transform="matrix(1,0,0,1,0,0)"><g id="svga-group-nose-single"><path id="SvgjsPath7405" d="M105.06 106.65c.56.92 2.64 3.61 3.09 4.9.45 1.29-.13 3.22-1.48 3.61s-3.61-.39-3.93-.19c-.32.19-1.87 2.06-2.58 1.93-.71-.13-2.64-2.13-3.03-2.13-.39 0-2.13.45-2.97.45-.84 0-2.9-.71-2.64-2.51.26-1.81 2.45-5.54 2.9-6.06.45-.52 1.48-2.32 1.74-3.42s.58-7.03.71-8.38c.13-1.35 1.35-2.97 2.58-3.09 1.23-.13 3.35.77 3.55 2.9.19 2.13.58 6.38.77 8.12.19 1.74.58 2.71 1.29 3.87z" fill="#f0c7b1" stroke-width="none" opacity="1" transform="translate(0 1)"></path><path id="SvgjsPath7406" d="M97.62 85.76c-.84 3.5-.96 7.24-1.34 10.81-.4 3.83-1.14 7.78-1.09 11.63 0 .31.48.39.55.07.78-3.52.88-7.26 1.24-10.84.39-3.82 1.1-7.79.98-11.63 0-.18-.29-.24-.34-.04z" fill="#c27b55" stroke-width="none" opacity="1" transform="translate(0 1)"></path><path id="SvgjsPath7407" d="M94.46 106.19c-1.03 1.37-1.9 2.87-2.65 4.41-.49 1-1.09 2.17-.77 3.32.53 1.89 2.93 2.49 4.5 1.58.47-.27.26-.99-.27-1-.92-.01-1.98.28-2.72-.5-.88-.94-.01-2.63.38-3.57.58-1.39 1.28-2.72 1.83-4.12.07-.19-.2-.26-.3-.12z" fill="#c27b55" stroke-width="none" opacity="1" transform="translate(0 1)"></path><path id="SvgjsPath7408" d="M94.31 113.98c2.84-.21 3.38 3.37 6.07 3.45 2.31.07 2.5-3.41 4.69-3.3.26.01.34-.35.13-.47-2.49-1.47-2.95 2.86-5.24 2.59-1.36-.16-2.32-2.16-3.54-2.73-.83-.39-1.43-.36-2.23.02-.22.09-.11.46.12.44z" fill="#c27b55" stroke-width="none" opacity="1" transform="translate(0 1)"></path><path id="SvgjsPath7409" d="M104.29 115.6c1.87.42 4.05-.16 4.49-2.24.22-1.04-.13-2.07-.67-2.95-.89-1.44-2.03-2.66-2.87-4.15-.14-.25-.49-.12-.51.14-.11 1.67 1.13 2.83 2.02 4.12.82 1.19 1.53 2.83.15 4-.63.54-1.83.44-2.6.59-.26.04-.25.43-.01.49z" fill="#c27b55" stroke-width="none" opacity="1" transform="translate(0 1)"></path><path id="SvgjsPath7410" d="M102.45 109.98c-.41-.74-1.47-.85-2.06-.26-.05.05-.24.29-.3.36-.07.09-.2.26-.23.29-.07.1-.12.21-.18.32l-.12.28c0-.01-.01.01-.03.05-.06.06-.12.13-.18.2-.18.19-.36.38-.5.6-.42.67-.08 1.42.48 1.84.87.65 2.13.13 2.74-.61.76-.89.96-2.03.38-3.07z" fill="#f8d5c3" stroke-width="none" opacity="1" transform="translate(0 1)"></path></g></g><g id="svga-group-hair-front"><path id="SvgjsPath7468" d="M135.8 66.3c-1 3.3-1 5.1-.9 7.6.1 2.4-1 5.1 1.1 4.8 2.1-.3 4.4-.7 5.7-4.2 1.3-3.5 3-8.2 2.9-10-.1-1.8-3.7-9-3.7-9l-3.3 7.8-1.8 3z" fill="#221b23" stroke-width="none" opacity="1"></path><path id="SvgjsPath7469" d="M143.8 74c.4-3.6 1-8.5.2-9.3-.8-.8-5.6 2.2-6 4.8s-.4 7.5-.4 7.5c-.7 2.7-.8 4-.7 5.8.1 1.8-1 3.9.7 3.6.1 0 .2 0 .2-.1-.3 2.3-.1 3.8.2 5.4.3 2.2-.7 4.5 1 4.6s2.7-.6 3.5-3.8c.8-3.2 1.3-6.4 1.4-9.5.1-2.5.2-6.3-.2-8.4.1-.2.1-.4.1-.6zm-81.6 6.8c-.5-1.6-.3-4-1-5.3s-3.5-6.4-3.5-6.4c-.9 1.8-2.3 3.9-2.3 7.1 0 2.7-.4 4.6.2 6.2-.1 1.2-.1 2.4 0 3.1.2 1.1 1.8 8.1 3.4 9.1 1.4.8 2.4-2.9 2.2-6.2 1.6-2.9 1.5-6.1 1-7.6z" fill="#1b141c" stroke-width="none" opacity="1"></path><path id="SvgjsPath7470" d="M59.3 61c-.9.8-2.3 3.2-2.7 5.7s-.4 5 .1 6.2c.6 1.1 3.6 7.3 5.6 6.3 2-1 1.3-3 1.1-6.2s.1-3.7-.7-6.4c-.8-2.8-3.4-5.6-3.4-5.6zm8.9-37.1c-.7-2.5 3 1.4 2.9 7.5-.1 6.2 1 10.6 3.8 13 2.8 2.4 13.2 11.2 13.2 11.2s-2.4.7-7.2-.7-11-3.5-14.2-7.6-2.3-10.2-.9-13.2c1.4-2.9 3.3-6.9 2.4-10.2zm51.4 32c2.2-.6 5.8-1.7 7.5-.6 1.6 1.1 1.7 4.7 5.3 4.6 3.6-.1 6.8-6.5 6.5-9.4-.2-2.9-2.4-7.8-5.9-9.1-3.5-1.3-3.1 2.6-3.5 4.1-.4 1.5.1 2.5-3.5 5.1-3.5 2.7-6.4 5.3-6.4 5.3z" fill="#221b23" stroke-width="none" opacity="1"></path><path id="SvgjsPath7471" d="M131.3 58.4c-.2 1.1-.4 4.4 1.1 6.4s.6 4.3 3.8 3.1c3.2-1.2 6.9-5.4 6.6-8.5-.2-3.1-2.7-10.6-5.3-12-2.7-1.3-2.9 4.6-2.9 4.6l-3.3 6.4zM66.4 40c-1.8 2.1-4.9 2.8-4.2 6.5s5.4 7.7 9.8 8.3 7.7-.1 8.3-.6-9.6-6.2-9.6-6.2l-4.3-8z" fill="#2a232b" stroke-width="none" opacity="1"></path><path id="SvgjsPath7472" d="M62.8 45.5c-1.2 1-2.4 1.5-2.8 4.4-.4 2.9-.5 3.4 1.2 6.7 1.8 3.3 2 5.3 4.6 4.7 2.6-.6 5.5-2.9 5.2-6.5s-2.7-1.3-3.9-4.5-2.1-3.9-2.1-3.9l-2.2-.9z" fill="#221b23" stroke-width="none" opacity="1"></path><path id="SvgjsPath7473" d="M60.9 52.2c-1.2 1.6-2.6 1.9-2.9 4.9s-1.3 2.9.7 6.4c2 3.5 4 7.7 5.9 5.7s1.6-3 1.9-5.4c.3-2.4-.6-4.9-1.7-7-1.2-2.2-3.9-4.6-3.9-4.6zm34.5 5s-6.4 0-10.1-1.8c-3.7-1.8-11.6-8.7-13.2-13.6s.4-14.4-.8-18.9c0 0 1.5 3.8 2.9 5.8s4.4 2 9.2 4.8 9.1 8.5 9.8 12.8 2.2 10.9 2.2 10.9z" fill="#1b141c" stroke-width="none" opacity="1"></path><path id="SvgjsPath7474" d="M73.7 18.1c-.1-.5-2 6.7 2 10.6S85.9 37 87.2 42.2s.9 6.1 2.3 9.3 3.2 6.4 5.8 7.6c2.6 1.2 7.4-.2 7.4-1s4.1 3.5 6.8 2.2c2.7-1.3 10.3-10.6 11.4-17.2s-2.4-13.6-6.8-14.7-21.6-2.4-25.2-4.3c-3.6-1.9-5.2-3.7-5.6-5.1 0 0-.3 3.4 3 7.4S96 33 96 33s4.7 1.2 5.3 5c0 0-8.2-6.4-15-8.9s-10-.9-12.6-11z" fill="#221b23" stroke-width="none" opacity="1"></path><path id="SvgjsPath7475" d="M104.5 60.4s-4.2.3-5.8-4.5S98 42 95.1 37.1s-13.9-7.4-16.7-10.3c-2.7-2.9-3.8-9.3-3.8-9.3s2.7 7.9 6.7 8.4c3.9.5 17.3 4.9 21.7 6.9s9.1 10.3 8.2 15.5-2.5 12.6-6.7 12.1z" fill="#2a232b" stroke-width="none" opacity="1"></path><path id="SvgjsPath7476" d="M110.6 26.7c.6 0 10.8 2.9 15.9 4.5s17 10.3 4.4 17.8-8 8.8-20.3 10.9c-3.4.6 3.6-5.6 6.3-11 2.7-5.4 2.5-14.6 1-16.6s-7.3-5.6-7.3-5.6z" fill="#1b141c" stroke-width="none" opacity="1"></path><path id="SvgjsPath7477" d="M96.3 58.9c-3.5-3-5.5-6.7-6.4-11.2-.6-3.2-.3-6.8-1.7-9.7-.9-1.8-2.2-3-3.8-4.1-4.4-3.1-7.9-5-9.8-10.5-.1-.2-.4-.1-.3.1.8 3 2.2 5.6 4.6 7.6 4.2 3.7 8.6 4.8 9.5 11.3.8 6.3 1.6 13.5 7.9 16.8-.1 0 .1-.2 0-.3zm2.5-.6c-6.1-2.7-8.2-8.4-8.7-14.6 0-.2-.3-.2-.3 0-.2 6.2 2.7 12.8 8.9 14.9.2 0 .3-.2.1-.3zm3.5.5c-3.5-4-4.4-8.4-4.3-13.6.1-2.9.5-5.9-1.2-8.5-1.4-2.2-3.7-3.1-5.9-4.2-3.7-1.8-7.3-3.6-11-5.1-.1 0-.2.1-.1.2 3.5 2 7.2 3.7 10.8 5.5 2.8 1.4 5.2 2.4 6.3 6 .6 1.9.2 4.2.2 6.1-.2 5.5 1.1 9.9 5 13.8.1.2.4-.1.2-.2zm3.6-.3c-3.7-3.2-1.6-6.9-1.5-11 0-2.6-.7-4.9-2-7.1-.1-.2-.3 0-.2.1 1.1 2.4 1.7 4.9 1.6 7.5-.1 1.8-.8 3.5-.8 5.3-.1 2.3 1 4 2.8 5.3.1.2.2 0 .1-.1zm18.3-25.6c-.2-.1-.3.2-.1.3.8.3 1.6.5 2.4.8v.1c7.6 6.6-2.7 14.6-7.7 18.1-.2.1 0 .4.2.3 5.3-2.8 16-12.5 8.1-18.3 3.1 1.3 3.8 2 4.7 5.5.8 3.2.4 4.9-2 7.4-1.3 1.4-3.1 2.4-4.8 3.4-4.2 2.5-7.9 5.8-12.2 8.2-.1 0 0 .2.1.1 4.4-2 8.1-5.5 12.3-8 2.8-1.7 5.7-3.5 7.1-6.5 3-6.4-2.7-10-8.1-11.4zm-10.5-3.3c-.1 0-.2.2 0 .2 4.6 1 9.8 2.1 10.5 7.7.5 4-2.1 7.8-4.8 10.4-3.5 3.3-7.4 5.9-8.2 11-.1.4.5.6.6.2 1.5-8.6 12.7-10.9 13.2-20.3.4-6.8-5.6-8.8-11.3-9.2zm-1.1 8.2c-4.2-9.5-17.4-8.6-24.7-14.5-.1-.1-.3.1-.2.2 7.2 6.7 18.9 5.6 24.3 14.6.3.3.8 0 .6-.3zm25.8 14.3c-.1-.2-.4-.2-.4 0 .1 5.3-6.3 8.5-4.5 14 .1.2.4.1.3-.1-1.3-5.4 5.8-8.4 4.6-13.9zm3.1 7.4c0-.2-.3-.2-.4 0-.6 1.8-1 3.6-1.9 5.3-.8 1.4-1.9 2.5-2.6 3.9-1 2-1.1 4-.5 6.1.1.2.4.1.3-.1-.6-4 1.4-5.9 3.3-9.1 1.1-1.9 1.6-4 1.8-6.1zm.7 2c0-.3-.4-.2-.5.1-.2 2.2-.4 4.1-1.2 6.1-.1.2.2.4.3.2 1-1.9 1.7-4.2 1.4-6.4zm0 11.7c0-.2-.3-.2-.4-.1-.6 3-1.6 5.7-2.5 8.6-.6 1.9-.8 3.6 0 5.4.1.3.6.1.5-.2-1-2.8.3-5.1 1.2-7.7.8-1.9 1.2-3.9 1.2-6zm-.2 8c-.5 1.1-.6 2.5-.6 3.7 0 .2.4.2.4 0 0-1.2.3-2.3.5-3.5 0-.3-.2-.5-.3-.2zM86.9 53.1c-4.5-1.6-8.2-3.9-10.6-8.2-2.5-4.4-2.2-9-2.3-13.9 0-.3-.5-.3-.5 0-.9 9.7 2.8 20 13.3 22.4.3.1.3-.2.1-.3zm-8.6-2c-2.7-1.7-5.5-4.7-7-7.5-1.9-3.4-1.8-7.3-1.7-11.1 0-.3-.4-.3-.4 0-.5 7.7 1.7 15 9 18.9.1.1.3-.2.1-.3zm-3.7.1c-3.8-1.8-6.7-4.4-8.4-8.4-.1-.2-.5-.2-.4.1 1.2 4 4.4 7.7 8.6 8.7.2.1.4-.3.2-.4zm-4.3 1.6c-1.7-.7-3.3-1.5-4.8-2.5-.1-.1-.2.1-.1.2 1.5 1 3.1 1.9 4.9 2.5.1-.1.1-.2 0-.2zM66 57.6c-1.6-1.5-3.2-2.8-4.4-4.6-.1-.2-.4 0-.3.2 1.2 1.8 2.7 3.6 4.5 4.7.1 0 .3-.2.2-.3zm55.6-20.7c-.4-3.5-3.1-6.2-6.5-6.7-.2 0-.2.2-.1.2 4.1 1.4 7.1 5.1 5.7 9.7-.8 2.6-3 4.6-4.6 6.7-.1.1.1.2.2.1 2.6-2.9 5.8-5.7 5.3-10zm-10.2-3.3c-.2-.2-.4.1-.2.2 5.6 6.5.8 14.3-1.4 21.2-.1.2.2.3.3.1 2.6-6.6 7.5-15.5 1.3-21.5zm-16.7-.9c-.2 0-.3.2-.1.3 8.9 2.5 3.9 14.4 6.7 20.7.1.2.3 0 .3-.1-1.8-6.4 2.2-18.9-6.9-20.9z" fill="#3a353a" stroke-width="none" opacity="1"></path></g><g id="svga-group-glasses-single-move" transform="matrix(1,0,0,1,0,0)"><g id="svga-group-glasses-single"><path id="SvgjsPath7434" d="M95.79 91.36s.32-2.16-3.48-3.45c-2.88-.98-5.89-1.11-8.31-1.11s-10.25-.09-12.23.09c-1.98.19-4.96.38-5.95 3.32-.99 2.94.33 7.88 4.3 10.35 3.97 2.47 12.23 2.66 17.52 1.04 5.28-1.6 7.71-5.27 8.15-10.24z" fill="#ffffff" stroke-width="none" opacity="0.44"></path><path id="SvgjsPath7435" d="M104.21 91.36s-.32-2.16 3.48-3.45c2.88-.98 5.89-1.11 8.31-1.11s10.25-.09 12.23.09c1.98.19 4.96.38 5.95 3.32.99 2.94-.33 7.88-4.3 10.35-3.97 2.47-12.23 2.66-17.52 1.04-5.28-1.6-7.71-5.27-8.15-10.24z" fill="#ffffff" stroke-width="none" opacity="0.44"></path><path id="SvgjsPath7436" d="M95.78 90.77s3.57-1.69 8.41 0v.98s-5.18-.98-8.5 0l.09-.98z" fill="#070201" stroke-width="none" opacity="1"></path><path id="SvgjsPath7437" d="M79.82 103.04c-4.1 0-7.71-.78-9.9-2.15-3.57-2.22-4.97-6.32-4.76-9.18l.01-.13h-2.4v-2.06h2.93l.03-.07c1.22-2.47 3.98-2.73 5.81-2.91l.19-.02c.85-.08 2.8-.12 5.97-.12 1.45 0 2.93.01 4.18.01.9.01 1.62.01 2.12.01 2.38 0 5.48.13 8.43 1.13 3.9 1.32 3.76 3.59 3.73 3.84-.49 5.46-3.32 9.02-8.42 10.58-2.24.69-5.06 1.07-7.92 1.07zm-2.07-15.89c-3.18 0-5.13.04-5.95.12l-.19.02c-2.03.19-4.56.43-5.44 3.05-.99 2.93.44 7.61 4.14 9.91 2.07 1.29 5.53 2.02 9.51 2.02 2.77 0 5.58-.37 7.7-1.02 4.85-1.48 7.43-4.73 7.89-9.93.02-.21.1-1.93-3.23-3.06-2.85-.97-5.87-1.09-8.19-1.09-.5 0-2.22-.01-2.22-.01-1.16 0-2.6-.01-4.02-.01z" fill="#26120b" stroke-width="none" opacity="1"></path><path id="SvgjsPath7438" d="M77.7 86.53c1.45 0 2.92.01 4.17.01h.05c.85 0 1.57.01 2.07.01 2.37 0 5.46.13 8.39 1.12 3.8 1.29 3.68 3.47 3.65 3.71-.48 5.41-3.29 8.93-8.33 10.47-2.24.68-5.04 1.06-7.89 1.06-4.08 0-7.66-.78-9.84-2.13-3.53-2.2-4.91-6.24-4.7-9.06l.02-.27h-2.41v-1.81h2.89l.07-.14c1.19-2.41 3.91-2.67 5.71-2.84l.19-.02c.85-.08 2.79-.11 5.96-.11m2.12 15.87c2.82 0 5.57-.36 7.74-1.03 4.9-1.5 7.51-4.78 7.98-10.06.02-.2.1-2.01-3.31-3.17-2.86-.97-5.9-1.1-8.23-1.1-.5 0-1.22 0-2.07-.01h-.15c-1.17-.01-2.6-.01-4.03-.01-3.19 0-5.14.04-5.96.12l-.19.02c-1.96.18-4.64.44-5.55 3.14-1 2.97.44 7.73 4.19 10.06 2.09 1.3 5.58 2.04 9.58 2.04M77.7 86.28c-2.53 0-4.97.02-5.98.12l-.19.02c-1.89.18-4.66.44-5.91 2.98h-2.98v2.31h2.39c-.23 3.15 1.4 7.16 4.82 9.29 2.41 1.5 6.19 2.17 9.97 2.17 2.85 0 5.71-.38 7.96-1.07 5.15-1.57 8.01-5.17 8.51-10.68.03-.27.17-2.62-3.82-3.97-2.97-1.02-6.09-1.15-8.47-1.15-.5 0-1.22 0-2.07-.01-1.26-.01-2.76-.01-4.23-.01zm2.12 15.87c-3.6 0-7.21-.62-9.45-2.01-3.65-2.27-5.06-6.88-4.09-9.77.86-2.55 3.34-2.78 5.34-2.97l.19-.02c.97-.09 3.44-.12 5.94-.12 1.48 0 2.98.01 4.17.01.85 0 1.58.01 2.08.01 2.31 0 5.32.12 8.15 1.08 3.27 1.11 3.16 2.81 3.15 2.91v.02c-.46 5.15-3.01 8.36-7.8 9.82-2.15.68-4.91 1.04-7.68 1.04z" fill="#070201" stroke-width="none" opacity="1"></path><path id="SvgjsPath7439" d="M120.18 103.04c-2.86 0-5.68-.38-7.93-1.06-5.1-1.56-7.93-5.11-8.42-10.58-.03-.26-.17-2.52 3.73-3.84 2.95-1 6.06-1.13 8.43-1.13.5 0 1.22 0 2.07-.01 1.3-.01 2.78-.02 4.23-.02 3.17 0 5.12.04 5.97.12l.18.02c1.83.17 4.59.43 5.81 2.91l.04.07h2.93v2.06h-2.39l.01.13c.21 2.86-1.19 6.96-4.76 9.18-2.19 1.36-5.8 2.15-9.9 2.15zm2.07-15.89c-1.42 0-2.86.01-4.03.01 0 0-1.73.01-2.22.01-2.32 0-5.35.12-8.19 1.09-3.32 1.13-3.25 2.85-3.23 3.04.47 5.23 3.05 8.47 7.89 9.95 2.12.65 4.93 1.02 7.7 1.02 3.98 0 7.44-.74 9.51-2.02 3.7-2.3 5.13-6.98 4.14-9.91-.88-2.62-3.41-2.86-5.45-3.05l-.19-.02c-.8-.08-2.75-.12-5.93-.12z" fill="#26120b" stroke-width="none" opacity="1"></path><path id="SvgjsPath7440" d="M122.3 86.28v.25c3.17 0 5.11.04 5.96.12l.19.02c1.8.17 4.52.43 5.71 2.84l.07.14h2.89v1.81h-2.41l.02.27c.21 2.83-1.17 6.87-4.7 9.06-2.18 1.35-5.76 2.13-9.84 2.13-2.85 0-5.65-.38-7.89-1.06-5.04-1.54-7.85-5.06-8.33-10.47-.03-.24-.16-2.42 3.65-3.71 2.93-.99 6.02-1.12 8.39-1.12.5 0 1.22 0 2.07-.01h.06c1.25-.01 2.72-.01 4.17-.01v-.26m-2.13 16.12c4 0 7.49-.74 9.58-2.04 3.75-2.33 5.2-7.08 4.19-10.06-.91-2.7-3.59-2.95-5.55-3.14l-.19-.02c-.82-.08-2.77-.12-5.96-.12-1.42 0-2.86.01-4.03.01h-.15c-.85 0-1.58.01-2.07.01-2.33 0-5.37.12-8.23 1.1-3.41 1.16-3.33 2.97-3.31 3.19.47 5.26 3.08 8.54 7.98 10.04 2.17.67 4.91 1.03 7.74 1.03m2.12-16.12c-1.47 0-2.97.01-4.23.02-.85 0-1.57.01-2.07.01-2.39 0-5.51.13-8.47 1.14-3.99 1.35-3.85 3.71-3.82 3.97.49 5.52 3.36 9.11 8.51 10.68 2.26.69 5.11 1.07 7.96 1.07 3.78 0 7.56-.67 9.97-2.17 3.42-2.13 5.05-6.14 4.82-9.29h2.39V89.4h-2.98c-1.25-2.53-4.02-2.8-5.91-2.98l-.19-.02c-1.01-.1-3.45-.12-5.98-.12zm-2.12 15.87c-2.77 0-5.53-.36-7.67-1.01-4.79-1.46-7.34-4.68-7.8-9.82v-.02c-.01-.1-.13-1.8 3.15-2.91 2.83-.96 5.84-1.08 8.15-1.08.5 0 1.22 0 2.08-.01 1.19-.01 2.69-.01 4.17-.01 2.5 0 4.96.02 5.94.12l.19.02c2 .19 4.48.42 5.34 2.97.97 2.88-.44 7.5-4.09 9.77-2.25 1.37-5.86 1.98-9.46 1.98z" fill="#070201" stroke-width="none" opacity="1"></path></g></g></g></g></g><rect id="svga-credit-rect" width="200" height="15" x="0" y="185" fill="#ecf0f1" opacity="0.5" style="display: none;"></rect><text id="svga-credit-text" font-family="Avenir Next, Roboto, Helvetica, Arial, sans-serif" font-size="10px" text-anchor="start" font-weight="400" size="10px" anchor="start" weight="400" fill="#333333" x="33.43669891357422" y="182.60824704170227" style="display: none;"><tspan id="SvgjsTspan7208" dy="13" x="33.43669891357422">Created on AvatarMaker.com</tspan></text></g><defs id="SvgjsDefs7155"></defs></svg>